<svg width="39" height="75" viewBox="0 0 39 75" fill="none" xmlns="http://www.w3.org/2000/svg">
<path d="M19.1855 61.1918C24.4419 61.1918 29.1797 61.9505 32.585 63.1625C34.2898 63.7693 35.6336 64.4811 36.542 65.2455C37.4528 66.012 37.8721 66.783 37.8721 67.5209C37.872 68.2588 37.4528 69.0299 36.542 69.7963C35.6336 70.5607 34.2896 71.2716 32.585 71.8784C29.1797 73.0904 24.442 73.85 19.1855 73.85C13.9293 73.85 9.1923 73.0904 5.78711 71.8784C4.08245 71.2716 2.73847 70.5607 1.83008 69.7963C0.919302 69.0299 0.500076 68.2588 0.5 67.5209C0.5 66.783 0.91922 66.012 1.83008 65.2455C2.73848 64.4811 4.08231 63.7693 5.78711 63.1625C9.19228 61.9506 13.9294 61.1919 19.1855 61.1918Z" fill="#5E5E5E" stroke="black"/>
<mask id="path-2-inside-1_51_334" fill="white">
<path d="M30.8193 49.041C29.3908 50.4595 28.5294 52.2883 28.5293 54.2851C28.5293 55.8969 29.0898 57.3998 30.0576 58.665C33.7573 59.7815 36.1035 61.4394 36.1035 63.2929C36.1031 66.6548 28.3865 69.3798 18.8682 69.3798C9.35009 69.3797 1.63419 66.6548 1.63379 63.2929C1.63379 61.5002 3.82792 59.8884 7.31934 58.7744C8.34007 57.4865 8.93555 55.9444 8.93555 54.2851C8.93548 52.2884 8.07496 50.4595 6.64648 49.041H30.8193Z"/>
</mask>
<path d="M30.8193 49.041C29.3908 50.4595 28.5294 52.2883 28.5293 54.2851C28.5293 55.8969 29.0898 57.3998 30.0576 58.665C33.7573 59.7815 36.1035 61.4394 36.1035 63.2929C36.1031 66.6548 28.3865 69.3798 18.8682 69.3798C9.35009 69.3797 1.63419 66.6548 1.63379 63.2929C1.63379 61.5002 3.82792 59.8884 7.31934 58.7744C8.34007 57.4865 8.93555 55.9444 8.93555 54.2851C8.93548 52.2884 8.07496 50.4595 6.64648 49.041H30.8193Z" fill="#5E5E5E"/>
<path d="M30.8193 49.041L31.524 49.7505L33.2455 48.041H30.8193V49.041ZM28.5293 54.2851L27.5293 54.2851V54.2851H28.5293ZM30.0576 58.665L29.2634 59.2726L29.4596 59.529L29.7687 59.6223L30.0576 58.665ZM36.1035 63.2929L37.1035 63.293V63.2929H36.1035ZM18.8682 69.3798L18.8682 70.3798H18.8682V69.3798ZM1.63379 63.2929L0.633789 63.2929L0.633789 63.293L1.63379 63.2929ZM7.31934 58.7744L7.62331 59.727L7.91371 59.6344L8.10304 59.3955L7.31934 58.7744ZM8.93555 54.2851L9.93555 54.2851L9.93555 54.2851L8.93555 54.2851ZM6.64648 49.041V48.041H4.22034L5.94184 49.7505L6.64648 49.041ZM30.8193 49.041L30.1147 48.3314C28.5232 49.9118 27.5294 51.9873 27.5293 54.2851L28.5293 54.2851L29.5293 54.2851C29.5294 52.5894 30.2584 51.0073 31.524 49.7505L30.8193 49.041ZM28.5293 54.2851H27.5293C27.5293 56.1368 28.175 57.8497 29.2634 59.2726L30.0576 58.665L30.8519 58.0574C30.0047 56.9499 29.5293 55.6571 29.5293 54.2851H28.5293ZM30.0576 58.665L29.7687 59.6223C31.5578 60.1623 32.9479 60.8134 33.8685 61.5029C34.8048 62.2043 35.1035 62.822 35.1035 63.2929H36.1035H37.1035C37.1035 61.9103 36.2291 60.7723 35.0675 59.9022C33.89 59.0202 32.2571 58.2842 30.3465 57.7076L30.0576 58.665ZM36.1035 63.2929L35.1035 63.2928C35.1035 63.7202 34.8607 64.2661 34.1079 64.8947C33.3607 65.5185 32.2197 66.1252 30.722 66.6541C27.7357 67.7088 23.5447 68.3798 18.8682 68.3798V69.3798V70.3798C23.7099 70.3798 28.1364 69.6883 31.388 68.54C33.0094 67.9674 34.3925 67.2625 35.3897 66.4299C36.3814 65.602 37.1034 64.5466 37.1035 63.293L36.1035 63.2929ZM18.8682 69.3798L18.8682 68.3798C14.1917 68.3798 10.001 67.7087 7.01487 66.6541C5.51729 66.1252 4.37643 65.5185 3.62929 64.8947C2.87657 64.2662 2.63384 63.7202 2.63379 63.2928L1.63379 63.2929L0.633789 63.293C0.63394 64.5466 1.35585 65.6019 2.34742 66.4298C3.34456 67.2624 4.72762 67.9674 6.34883 68.5399C9.60024 69.6883 14.0265 70.3798 18.8682 70.3798L18.8682 69.3798ZM1.63379 63.2929H2.63379C2.63379 62.8372 2.91199 62.2447 3.78133 61.5684C4.63886 60.9012 5.93879 60.2645 7.62331 59.727L7.31934 58.7744L7.01536 57.8217C5.20847 58.3982 3.66562 59.1244 2.55323 59.9898C1.45265 60.8461 0.633789 61.9558 0.633789 63.2929H1.63379ZM7.31934 58.7744L8.10304 59.3955C9.24914 57.9494 9.93555 56.1925 9.93555 54.2851H8.93555H7.93555C7.93555 55.6963 7.43099 57.0235 6.53563 58.1532L7.31934 58.7744ZM8.93555 54.2851L9.93555 54.2851C9.93547 51.9876 8.94281 49.912 7.35113 48.3314L6.64648 49.041L5.94184 49.7505C7.2071 51.007 7.93549 52.5891 7.93555 54.2851L8.93555 54.2851ZM6.64648 49.041V50.041H30.8193V49.041V48.041H6.64648V49.041Z" fill="black" mask="url(#path-2-inside-1_51_334)"/>
<path d="M19.1854 42.9814C22.9938 42.9814 26.418 43.6642 28.871 44.748C30.098 45.2902 31.0596 45.9234 31.7079 46.6006C32.3538 47.2754 32.6678 47.9708 32.6678 48.6602C32.6677 49.3494 32.3537 50.0441 31.7079 50.7188C31.0596 51.396 30.098 52.0291 28.871 52.5713C26.418 53.6552 22.9938 54.3379 19.1854 54.3379C15.3773 54.3379 11.9538 53.6551 9.50085 52.5713C8.27368 52.0291 7.3113 51.3961 6.66296 50.7188C6.01724 50.0441 5.70311 49.3493 5.703 48.6602C5.703 47.9708 6.01704 47.2754 6.66296 46.6006C7.3113 45.9233 8.27369 45.2903 9.50085 44.748C11.9538 43.6643 15.3774 42.9815 19.1854 42.9814Z" fill="#5E5E5E" stroke="black"/>
<mask id="path-5-inside-2_51_334" fill="white">
<path d="M27.2356 30.2069C25.8597 31.947 24.9691 34.7168 24.969 37.8368C24.969 40.2159 25.4889 42.3908 26.345 44.0614C28.1415 44.5634 29.2512 45.2531 29.2512 46.0145C29.2505 47.5497 24.7406 48.7938 19.178 48.7938C13.6153 48.7938 9.10542 47.5497 9.10474 46.0145C9.10474 45.3074 10.0617 44.6623 11.637 44.1717C12.5272 42.487 13.0706 40.2687 13.0706 37.8368C13.0705 34.7167 12.1799 31.9469 10.804 30.2069H27.2356Z"/>
</mask>
<path d="M27.2356 30.2069C25.8597 31.947 24.9691 34.7168 24.969 37.8368C24.969 40.2159 25.4889 42.3908 26.345 44.0614C28.1415 44.5634 29.2512 45.2531 29.2512 46.0145C29.2505 47.5497 24.7406 48.7938 19.178 48.7938C13.6153 48.7938 9.10542 47.5497 9.10474 46.0145C9.10474 45.3074 10.0617 44.6623 11.637 44.1717C12.5272 42.487 13.0706 40.2687 13.0706 37.8368C13.0705 34.7167 12.1799 31.9469 10.804 30.2069H27.2356Z" fill="#5E5E5E"/>
<path d="M27.2356 30.2069L28.02 30.8271L29.3011 29.2069H27.2356V30.2069ZM24.969 37.8368L23.969 37.8367V37.8368H24.969ZM26.345 44.0614L25.455 44.5174L25.6545 44.9067L26.0758 45.0245L26.345 44.0614ZM29.2512 46.0145L30.2512 46.0149V46.0145H29.2512ZM19.178 48.7938L19.178 49.7938L19.178 49.7938L19.178 48.7938ZM9.10474 46.0145L8.10474 46.0145L8.10474 46.0149L9.10474 46.0145ZM11.637 44.1717L11.9343 45.1265L12.3283 45.0038L12.5211 44.6389L11.637 44.1717ZM13.0706 37.8368L14.0706 37.8368L14.0706 37.8367L13.0706 37.8368ZM10.804 30.2069V29.2069H8.73835L10.0196 30.8271L10.804 30.2069ZM27.2356 30.2069L26.4512 29.5866C24.9028 31.5448 23.9691 34.551 23.969 37.8367L24.969 37.8368L25.969 37.8368C25.9691 34.8826 26.8166 32.3491 28.02 30.8271L27.2356 30.2069ZM24.969 37.8368H23.969C23.969 40.3536 24.5176 42.6882 25.455 44.5174L26.345 44.0614L27.2349 43.6053C26.4601 42.0934 25.969 40.0782 25.969 37.8368H24.969ZM26.345 44.0614L26.0758 45.0245C26.9267 45.2622 27.5423 45.5261 27.9221 45.776C28.3424 46.0526 28.2512 46.154 28.2512 46.0145H29.2512H30.2512C30.2512 45.1136 29.6053 44.4895 29.0215 44.1053C28.3973 43.6946 27.5598 43.3626 26.6141 43.0983L26.345 44.0614ZM29.2512 46.0145L28.2512 46.0141C28.2513 45.874 28.3427 45.9785 27.9129 46.2588C27.5253 46.5116 26.8984 46.7775 26.0344 47.0158C24.3204 47.4887 21.8959 47.7938 19.178 47.7938L19.178 48.7938L19.178 49.7938C22.0227 49.7938 24.6345 49.4768 26.5663 48.9438C27.5251 48.6793 28.3735 48.3462 29.0055 47.934C29.5954 47.5493 30.2508 46.9225 30.2512 46.0149L29.2512 46.0145ZM19.178 48.7938V47.7938C16.46 47.7938 14.0356 47.4887 12.3216 47.0159C11.4575 46.7775 10.8306 46.5116 10.443 46.2588C10.0133 45.9785 10.1047 45.8741 10.1047 46.0141L9.10474 46.0145L8.10474 46.0149C8.10514 46.9225 8.76052 47.5493 9.35042 47.934C9.98247 48.3462 10.8308 48.6793 11.7897 48.9438C13.7215 49.4768 16.3333 49.7938 19.178 49.7938V48.7938ZM9.10474 46.0145H10.1047C10.1047 46.1463 10.02 46.0691 10.3607 45.8261C10.6749 45.6021 11.1954 45.3566 11.9343 45.1265L11.637 44.1717L11.3396 43.217C10.5033 43.4774 9.75768 43.7998 9.19956 44.1977C8.668 44.5767 8.10474 45.1757 8.10474 46.0145H9.10474ZM11.637 44.1717L12.5211 44.6389C13.4973 42.7916 14.0706 40.409 14.0706 37.8368H13.0706H12.0706C12.0706 40.1285 11.5571 42.1825 10.7528 43.7045L11.637 44.1717ZM13.0706 37.8368L14.0706 37.8367C14.0705 34.551 13.1368 31.5448 11.5884 29.5866L10.804 30.2069L10.0196 30.8271C11.223 32.3491 12.0705 34.8825 12.0706 37.8368L13.0706 37.8368ZM10.804 30.2069V31.2069H27.2356V30.2069V29.2069H10.804V30.2069Z" fill="black" mask="url(#path-5-inside-2_51_334)"/>
<path d="M19.2129 26.6249C22.6728 26.6249 25.7839 27.1289 28.0117 27.9286C29.1278 28.3292 29.9959 28.7953 30.5752 29.287C31.1564 29.7803 31.3955 30.2523 31.3955 30.6776C31.3954 31.1029 31.1564 31.5749 30.5752 32.0682C29.9959 32.5599 29.1278 33.025 28.0117 33.4257C25.7839 34.2254 22.6729 34.7294 19.2129 34.7294C15.7532 34.7293 12.6428 34.2253 10.415 33.4257C9.29905 33.025 8.43089 32.5599 7.85156 32.0682C7.27024 31.5749 7.03134 31.1029 7.03125 30.6776C7.03125 30.2523 7.27021 29.7804 7.85156 29.287C8.43089 28.7953 9.29897 28.3292 10.415 27.9286C12.6428 27.129 15.7533 26.6249 19.2129 26.6249Z" fill="#5E5E5E" stroke="black"/>
<path d="M19.1133 4.61914C19.3269 7.67744 21.3201 10.5813 23.4053 13.2598C24.5308 14.7054 25.6767 16.076 26.6777 17.4395C27.6746 18.7973 28.4824 20.0901 28.9189 21.3301C29.7509 23.6936 28.7918 25.7463 26.9004 27.2617C24.9943 28.7887 22.1971 29.707 19.5938 29.707C14.421 29.707 10.2971 25.8453 10.2969 21.1641C10.2969 18.7662 11.3643 14.5717 13.1162 10.9688C13.9896 9.17254 15.0175 7.55612 16.1396 6.39648C17.1115 5.3922 18.1128 4.77145 19.1133 4.61914Z" fill="#5E5E5E" stroke="black"/>
<path d="M19.1854 0.5C20.284 0.500006 21.2919 0.965723 22.0282 1.61914C22.7783 2.28486 23.1757 3.07796 23.1757 3.67383C23.1757 4.23263 22.8184 4.81 22.0917 5.27246C21.3709 5.73106 20.3448 6.03125 19.1854 6.03125C18.026 6.03125 17 5.73105 16.2792 5.27246C15.5525 4.81 15.1952 4.23263 15.1952 3.67383C15.1952 3.07796 15.5926 2.28486 16.3427 1.61914C17.0789 0.965729 18.0868 0.5 19.1854 0.5Z" fill="#5E5E5E" stroke="black"/>
</svg>
