<svg width="41" height="88" viewBox="0 0 41 88" fill="none" xmlns="http://www.w3.org/2000/svg">
<path d="M20.1367 73.6242C25.6556 73.6242 30.6308 74.4213 34.208 75.6945C35.9987 76.3319 37.4127 77.0791 38.3691 77.884C39.3279 78.6908 39.7733 79.5067 39.7734 80.2912C39.7734 81.0757 39.3278 81.8916 38.3691 82.6984C37.4127 83.5033 35.9987 84.2515 34.208 84.8889C30.6308 86.1621 25.6556 86.9591 20.1367 86.9592C14.6178 86.9592 9.64272 86.1621 6.06543 84.8889C4.27458 84.2514 2.8608 83.5033 1.9043 82.6984C0.945455 81.8915 0.5 81.0758 0.5 80.2912C0.500094 79.5066 0.945438 78.6909 1.9043 77.884C2.86078 77.0791 4.27467 76.3319 6.06543 75.6945C9.64272 74.4212 14.6178 73.6242 20.1367 73.6242Z" fill="#5E5E5E" stroke="black"/>
<mask id="path-2-inside-1_51_376" fill="white">
<path d="M32.3466 60.8961C30.847 62.385 29.9424 64.3041 29.9423 66.4C29.9423 68.0914 30.5302 69.6681 31.5458 70.9957C35.429 72.1675 37.8915 73.9086 37.8915 75.8541C37.8912 79.3826 29.7925 82.2427 19.8026 82.2427C9.81266 82.2427 1.71405 79.3826 1.71375 75.8541C1.71375 73.9724 4.0167 72.2801 7.68152 71.1109C8.75253 69.7594 9.37781 68.1412 9.37781 66.4C9.37772 64.3041 8.47397 62.3849 6.97449 60.8961H32.3466Z"/>
</mask>
<path d="M32.3466 60.8961C30.847 62.385 29.9424 64.3041 29.9423 66.4C29.9423 68.0914 30.5302 69.6681 31.5458 70.9957C35.429 72.1675 37.8915 73.9086 37.8915 75.8541C37.8912 79.3826 29.7925 82.2427 19.8026 82.2427C9.81266 82.2427 1.71405 79.3826 1.71375 75.8541C1.71375 73.9724 4.0167 72.2801 7.68152 71.1109C8.75253 69.7594 9.37781 68.1412 9.37781 66.4C9.37772 64.3041 8.47397 62.3849 6.97449 60.8961H32.3466Z" fill="#5E5E5E"/>
<path d="M32.3466 60.8961L33.0511 61.6057L34.773 59.8961H32.3466V60.8961ZM29.9423 66.4L28.9423 66.3999V66.4H29.9423ZM31.5458 70.9957L30.7515 71.6033L30.9477 71.8597L31.2569 71.953L31.5458 70.9957ZM37.8915 75.8541L38.8915 75.8542V75.8541H37.8915ZM19.8026 82.2427L19.8026 83.2427L19.8026 83.2427L19.8026 82.2427ZM1.71375 75.8541L0.713745 75.8541L0.713745 75.8542L1.71375 75.8541ZM7.68152 71.1109L7.98547 72.0636L8.27591 71.9709L8.46526 71.732L7.68152 71.1109ZM9.37781 66.4L10.3778 66.4L10.3778 66.3999L9.37781 66.4ZM6.97449 60.8961V59.8961H4.54811L6.26989 61.6057L6.97449 60.8961ZM32.3466 60.8961L31.642 60.1864C29.9796 61.837 28.9424 64.0028 28.9423 66.3999L29.9423 66.4L30.9423 66.4C30.9423 64.6053 31.7145 62.9329 33.0511 61.6057L32.3466 60.8961ZM29.9423 66.4H28.9423C28.9423 68.3312 29.6153 70.118 30.7515 71.6033L31.5458 70.9957L32.34 70.3881C31.4451 69.2182 30.9423 67.8516 30.9423 66.4H29.9423ZM31.5458 70.9957L31.2569 71.953C33.1377 72.5206 34.6027 73.2064 35.5752 73.9351C36.5636 74.6756 36.8915 75.3371 36.8915 75.8541H37.8915H38.8915C38.8915 74.4256 37.9881 73.2438 36.7745 72.3345C35.545 71.4133 33.8371 70.6426 31.8347 70.0383L31.5458 70.9957ZM37.8915 75.8541L36.8915 75.854C36.8914 76.323 36.6248 76.9087 35.8289 77.5733C35.0385 78.2332 33.835 78.8724 32.2601 79.4287C29.1193 80.5379 24.715 81.2427 19.8026 81.2427L19.8026 82.2427L19.8026 83.2427C24.8801 83.2427 29.5201 82.5174 32.9262 81.3145C34.6247 80.7146 36.0703 79.9772 37.1107 79.1085C38.1455 78.2444 38.8914 77.1494 38.8915 75.8542L37.8915 75.8541ZM19.8026 82.2427V81.2427C14.8902 81.2427 10.4859 80.5379 7.34508 79.4287C5.77018 78.8724 4.56674 78.2333 3.77636 77.5733C2.98041 76.9087 2.71379 76.323 2.71375 75.854L1.71375 75.8541L0.713745 75.8542C0.713857 77.1494 1.45967 78.2444 2.49449 79.1085C3.53486 79.9772 4.98051 80.7146 6.67904 81.3145C10.0851 82.5175 14.7251 83.2427 19.8026 83.2427V82.2427ZM1.71375 75.8541H2.71375C2.71375 75.3539 3.0192 74.719 3.93742 74.0045C4.84382 73.2993 6.21429 72.6287 7.98547 72.0636L7.68152 71.1109L7.37757 70.1582C5.48392 70.7624 3.87051 71.5225 2.70923 72.4261C1.55977 73.3205 0.713745 74.4726 0.713745 75.8541H1.71375ZM7.68152 71.1109L8.46526 71.732C9.6615 70.2225 10.3778 68.3895 10.3778 66.4H9.37781H8.37781C8.37781 67.893 7.84355 69.2964 6.89778 70.4898L7.68152 71.1109ZM9.37781 66.4L10.3778 66.3999C10.3777 64.0032 9.34165 61.8373 7.67908 60.1864L6.97449 60.8961L6.26989 61.6057C7.60629 62.9326 8.37773 64.6051 8.37781 66.4L9.37781 66.4ZM6.97449 60.8961V61.8961H32.3466V60.8961V59.8961H6.97449V60.8961Z" fill="black" mask="url(#path-2-inside-1_51_376)"/>
<path d="M19.8169 54.5116C23.8164 54.5116 27.4134 55.2288 29.9917 56.368C31.2815 56.9379 32.2937 57.6043 32.9771 58.3182C33.658 59.0296 33.9917 59.7644 33.9917 60.4959C33.9917 61.2276 33.658 61.9632 32.9771 62.6747C32.2937 63.3884 31.2813 64.054 29.9917 64.6239C27.4134 65.7631 23.8164 66.4803 19.8169 66.4803C15.8173 66.4803 12.2195 65.7631 9.64111 64.6239C8.35158 64.054 7.33909 63.3884 6.65576 62.6747C5.97478 61.9632 5.64111 61.2276 5.64111 60.4959C5.64114 59.7644 5.97491 59.0295 6.65576 58.3182C7.3391 57.6043 8.35139 56.9379 9.64111 56.368C12.2195 55.2287 15.8173 54.5116 19.8169 54.5116Z" fill="#5E5E5E" stroke="black"/>
<mask id="path-5-inside-2_51_376" fill="white">
<path d="M27.7883 29.9898C26.7302 33.1438 26.0764 37.4734 26.0764 42.2515C26.0764 47.7884 26.9574 52.7218 28.3254 55.9224C29.7312 56.4178 30.5695 57.0413 30.5696 57.7193C30.5696 59.3307 25.836 60.6373 19.9973 60.6373C14.1588 60.6372 9.42603 59.3307 9.42603 57.7193C9.42606 57.1073 10.1088 56.54 11.2756 56.0709C12.6802 52.8754 13.5872 47.8743 13.5872 42.2515C13.5871 37.4734 12.9333 33.1437 11.8752 29.9898H27.7883Z"/>
</mask>
<path d="M27.7883 29.9898C26.7302 33.1438 26.0764 37.4734 26.0764 42.2515C26.0764 47.7884 26.9574 52.7218 28.3254 55.9224C29.7312 56.4178 30.5695 57.0413 30.5696 57.7193C30.5696 59.3307 25.836 60.6373 19.9973 60.6373C14.1588 60.6372 9.42603 59.3307 9.42603 57.7193C9.42606 57.1073 10.1088 56.54 11.2756 56.0709C12.6802 52.8754 13.5872 47.8743 13.5872 42.2515C13.5871 37.4734 12.9333 33.1437 11.8752 29.9898H27.7883Z" fill="#5E5E5E"/>
<path d="M27.7883 29.9898L28.7364 30.3079L29.1786 28.9898H27.7883V29.9898ZM26.0764 42.2515L25.0764 42.2515L25.0764 42.2515L26.0764 42.2515ZM28.3254 55.9224L27.4059 56.3154L27.5786 56.7195L27.9931 56.8656L28.3254 55.9224ZM30.5696 57.7193L31.5696 57.7193L31.5696 57.7192L30.5696 57.7193ZM19.9973 60.6373L19.9973 61.6373H19.9973V60.6373ZM9.42603 57.7193L8.42603 57.7192V57.7193H9.42603ZM11.2756 56.0709L11.6487 56.9987L12.027 56.8466L12.1911 56.4733L11.2756 56.0709ZM13.5872 42.2515L14.5872 42.2515L14.5872 42.2515L13.5872 42.2515ZM11.8752 29.9898V28.9898H10.485L10.9272 30.3079L11.8752 29.9898ZM27.7883 29.9898L26.8403 29.6717C25.7396 32.9525 25.0764 37.3943 25.0764 42.2515L26.0764 42.2515L27.0764 42.2515C27.0764 37.5525 27.7208 33.335 28.7364 30.3079L27.7883 29.9898ZM26.0764 42.2515L25.0764 42.2515C25.0764 47.8713 25.9676 52.9502 27.4059 56.3154L28.3254 55.9224L29.245 55.5294C27.9473 52.4933 27.0764 47.7054 27.0764 42.2515L26.0764 42.2515ZM28.3254 55.9224L27.9931 56.8656C28.6453 57.0954 29.0925 57.3312 29.3571 57.5389C29.6353 57.7573 29.5696 57.825 29.5696 57.7194L30.5696 57.7193L31.5696 57.7192C31.5695 56.9356 31.0846 56.3525 30.5922 55.9659C30.0862 55.5685 29.4113 55.2448 28.6578 54.9793L28.3254 55.9224ZM30.5696 57.7193H29.5696C29.5696 57.5982 29.6472 57.7207 29.1923 58.0176C28.7795 58.2869 28.1161 58.5677 27.2069 58.8186C25.4026 59.3166 22.8532 59.6373 19.9973 59.6373V60.6373V61.6373C22.9801 61.6373 25.7168 61.3047 27.739 60.7465C28.743 60.4694 29.6279 60.1214 30.2852 59.6925C30.9003 59.2912 31.5696 58.6461 31.5696 57.7193H30.5696ZM19.9973 60.6373L19.9973 59.6373C17.1415 59.6372 14.5923 59.3166 12.7883 58.8186C11.8792 58.5676 11.2159 58.2869 10.8033 58.0176C10.3485 57.7208 10.426 57.5983 10.426 57.7193H9.42603H8.42603C8.42603 58.646 9.09514 59.2911 9.71022 59.6925C10.3674 60.1214 11.2522 60.4694 12.2561 60.7465C14.2781 61.3046 17.0146 61.6372 19.9973 61.6373L19.9973 60.6373ZM9.42603 57.7193L10.426 57.7194C10.426 57.8147 10.3695 57.7711 10.5718 57.5941C10.7703 57.4204 11.1185 57.2119 11.6487 56.9987L11.2756 56.0709L10.9026 55.143C10.266 55.399 9.68934 55.7087 9.25481 56.0889C8.82397 56.4659 8.42607 57.0119 8.42603 57.7192L9.42603 57.7193ZM11.2756 56.0709L12.1911 56.4733C13.6702 53.1082 14.5872 47.9569 14.5872 42.2515L13.5872 42.2515L12.5872 42.2515C12.5872 47.7917 11.6902 52.6427 10.3602 55.6685L11.2756 56.0709ZM13.5872 42.2515L14.5872 42.2515C14.5871 37.3943 13.924 32.9525 12.8233 29.6717L11.8752 29.9898L10.9272 30.3079C11.9427 33.335 12.5871 37.5525 12.5872 42.2515L13.5872 42.2515ZM11.8752 29.9898V30.9898H27.7883V29.9898V28.9898H11.8752V29.9898Z" fill="black" mask="url(#path-5-inside-2_51_376)"/>
<mask id="path-7-inside-3_51_376" fill="white">
<path d="M28.9995 28.4035C32.2216 29.1893 34.2737 30.376 34.2739 31.7033C34.2739 34.0694 27.7524 35.9875 19.7075 35.9875C11.6627 35.9874 5.14111 34.0694 5.14111 31.7033C5.14136 30.3056 7.41704 29.0644 10.938 28.2824L6.85498 18.8507H33.4175L28.9995 28.4035Z"/>
</mask>
<path d="M28.9995 28.4035C32.2216 29.1893 34.2737 30.376 34.2739 31.7033C34.2739 34.0694 27.7524 35.9875 19.7075 35.9875C11.6627 35.9874 5.14111 34.0694 5.14111 31.7033C5.14136 30.3056 7.41704 29.0644 10.938 28.2824L6.85498 18.8507H33.4175L28.9995 28.4035Z" fill="#5E5E5E"/>
<path d="M28.9995 28.4035L28.0919 27.9837L27.5816 29.087L28.7626 29.375L28.9995 28.4035ZM34.2739 31.7033L35.2739 31.7033L35.2739 31.7031L34.2739 31.7033ZM19.7075 35.9875L19.7075 36.9875H19.7075V35.9875ZM5.14111 31.7033L4.14111 31.7031V31.7033H5.14111ZM10.938 28.2824L11.1548 29.2586L12.3366 28.9961L11.8557 27.8851L10.938 28.2824ZM6.85498 18.8507V17.8507H5.33239L5.93728 19.248L6.85498 18.8507ZM33.4175 18.8507L34.3251 19.2705L34.9817 17.8507H33.4175V18.8507ZM28.9995 28.4035L28.7626 29.375C30.3239 29.7558 31.531 30.2183 32.3227 30.7031C33.1681 31.2208 33.2739 31.5892 33.2739 31.7035L34.2739 31.7033L35.2739 31.7031C35.2737 30.4901 34.3534 29.6015 33.3672 28.9975C32.3272 28.3607 30.8972 27.837 29.2364 27.4319L28.9995 28.4035ZM34.2739 31.7033H33.2739C33.2739 31.8009 33.201 32.103 32.5583 32.5499C31.9451 32.9763 30.9925 33.4006 29.7254 33.7733C27.2042 34.5148 23.6621 34.9875 19.7075 34.9875V35.9875V36.9875C23.7978 36.9875 27.5388 36.5011 30.2897 35.692C31.6586 35.2894 32.8392 34.7906 33.7001 34.1919C34.5317 33.6137 35.2739 32.7888 35.2739 31.7033H34.2739ZM19.7075 35.9875L19.7075 34.9875C15.7529 34.9875 12.2108 34.5148 9.68967 33.7733C8.42255 33.4006 7.46994 32.9763 6.85672 32.5499C6.21406 32.103 6.14111 31.8008 6.14111 31.7033H5.14111H4.14111C4.14111 32.7888 4.88336 33.6137 5.71491 34.1919C6.57588 34.7906 7.75647 35.2894 9.12535 35.692C11.8762 36.5011 15.6173 36.9875 19.7075 36.9875L19.7075 35.9875ZM5.14111 31.7033L6.14111 31.7035C6.14114 31.58 6.26677 31.1781 7.21941 30.6279C8.1047 30.1166 9.44377 29.6386 11.1548 29.2586L10.938 28.2824L10.7212 27.3062C8.91125 27.7081 7.35201 28.2417 6.21917 28.896C5.15366 29.5114 4.14134 30.4289 4.14111 31.7031L5.14111 31.7033ZM10.938 28.2824L11.8557 27.8851L7.77268 18.4535L6.85498 18.8507L5.93728 19.248L10.0203 28.6797L10.938 28.2824ZM6.85498 18.8507V19.8507H33.4175V18.8507V17.8507H6.85498V18.8507ZM33.4175 18.8507L32.5098 18.431L28.0919 27.9837L28.9995 28.4035L29.9071 28.8232L34.3251 19.2705L33.4175 18.8507Z" fill="black" mask="url(#path-7-inside-3_51_376)"/>
<mask id="path-9-inside-4_51_376" fill="white">
<path d="M22.2776 5.14062H29.1331V9.42578H22.2776V12.4453L28.9016 17.4209C31.9275 17.8923 33.8454 18.5918 33.8459 19.373C33.8448 20.7925 27.5148 21.9443 19.7073 21.9443C11.8999 21.9443 5.57075 20.7925 5.56958 19.373C5.57015 18.5047 7.93907 17.7387 11.5657 17.2734L17.9934 12.4463V9.42578H11.1389V5.14062H17.9934V0H22.2776V5.14062Z"/>
</mask>
<path d="M22.2776 5.14062H29.1331V9.42578H22.2776V12.4453L28.9016 17.4209C31.9275 17.8923 33.8454 18.5918 33.8459 19.373C33.8448 20.7925 27.5148 21.9443 19.7073 21.9443C11.8999 21.9443 5.57075 20.7925 5.56958 19.373C5.57015 18.5047 7.93907 17.7387 11.5657 17.2734L17.9934 12.4463V9.42578H11.1389V5.14062H17.9934V0H22.2776V5.14062Z" fill="#5E5E5E"/>
<path d="M22.2776 5.14062H21.2776V6.14062H22.2776V5.14062ZM29.1331 5.14062H30.1331V4.14062H29.1331V5.14062ZM29.1331 9.42578V10.4258H30.1331V9.42578H29.1331ZM22.2776 9.42578V8.42578H21.2776V9.42578H22.2776ZM22.2776 12.4453H21.2776V12.9449L21.677 13.2449L22.2776 12.4453ZM28.9016 17.4209L28.301 18.2205L28.5008 18.3705L28.7477 18.409L28.9016 17.4209ZM33.8459 19.373L34.8459 19.3739L34.8459 19.3724L33.8459 19.373ZM19.7073 21.9443L19.7073 22.9443L19.7073 22.9443L19.7073 21.9443ZM5.56958 19.373L4.56958 19.3724L4.56958 19.3739L5.56958 19.373ZM11.5657 17.2734L11.6929 18.2653L11.9549 18.2317L12.1662 18.0731L11.5657 17.2734ZM17.9934 12.4463L18.5939 13.2459L18.9934 12.9459V12.4463H17.9934ZM17.9934 9.42578H18.9934V8.42578H17.9934V9.42578ZM11.1389 9.42578H10.1389V10.4258H11.1389V9.42578ZM11.1389 5.14062V4.14062H10.1389V5.14062H11.1389ZM17.9934 5.14062V6.14062H18.9934V5.14062H17.9934ZM17.9934 0V-1H16.9934V0H17.9934ZM22.2776 0H23.2776V-1H22.2776V0ZM22.2776 5.14062V6.14062H29.1331V5.14062V4.14062H22.2776V5.14062ZM29.1331 5.14062H28.1331V9.42578H29.1331H30.1331V5.14062H29.1331ZM29.1331 9.42578V8.42578H22.2776V9.42578V10.4258H29.1331V9.42578ZM22.2776 9.42578H21.2776V12.4453H22.2776H23.2776V9.42578H22.2776ZM22.2776 12.4453L21.677 13.2449L28.301 18.2205L28.9016 17.4209L29.5022 16.6213L22.8782 11.6458L22.2776 12.4453ZM28.9016 17.4209L28.7477 18.409C30.2319 18.6402 31.3872 18.9196 32.1479 19.2136C32.5333 19.3625 32.7596 19.4935 32.8717 19.5838C32.9974 19.6849 32.8461 19.619 32.8459 19.3737L33.8459 19.373L34.8459 19.3724C34.8455 18.7365 34.4543 18.2902 34.1256 18.0257C33.7835 17.7503 33.341 17.5305 32.8687 17.348C31.9138 16.979 30.5972 16.673 29.0555 16.4328L28.9016 17.4209ZM33.8459 19.373L32.8459 19.3722C32.8461 19.1492 32.9738 19.0728 32.8943 19.1433C32.8191 19.2102 32.6503 19.3213 32.3393 19.4549C31.7251 19.719 30.7749 19.9798 29.525 20.2071C27.0415 20.6589 23.5699 20.9443 19.7073 20.9443L19.7073 21.9443L19.7073 22.9443C23.6521 22.9443 27.2492 22.6539 29.8829 22.1749C31.1916 21.9368 32.3121 21.6436 33.1291 21.2924C33.5338 21.1184 33.9207 20.9067 34.2223 20.6388C34.5198 20.3747 34.8455 19.9518 34.8459 19.3739L33.8459 19.373ZM19.7073 21.9443L19.7073 20.9443C15.8447 20.9443 12.3733 20.6588 9.89008 20.2071C8.64029 19.9798 7.69024 19.7189 7.07612 19.4549C6.76521 19.3213 6.59645 19.2102 6.52121 19.1434C6.4418 19.0729 6.5694 19.1492 6.56958 19.3722L5.56958 19.373L4.56958 19.3739C4.57006 19.9517 4.89569 20.3746 5.19313 20.6388C5.49474 20.9066 5.88164 21.1184 6.28623 21.2924C7.10314 21.6435 8.22357 21.9368 9.53214 22.1748C12.1656 22.6539 15.7625 22.9443 19.7073 22.9443L19.7073 21.9443ZM5.56958 19.373L6.56958 19.3737C6.5694 19.6443 6.38967 19.6937 6.58185 19.555C6.74524 19.4371 7.04899 19.2836 7.53194 19.1181C8.48525 18.7916 9.9082 18.4943 11.6929 18.2653L11.5657 17.2734L11.4384 16.2816C9.59655 16.5179 8.02173 16.8362 6.88379 17.2261C6.32111 17.4188 5.80586 17.6487 5.41158 17.9331C5.0461 18.1969 4.57004 18.6677 4.56958 19.3724L5.56958 19.373ZM11.5657 17.2734L12.1662 18.0731L18.5939 13.2459L17.9934 12.4463L17.3929 11.6467L10.9652 16.4738L11.5657 17.2734ZM17.9934 12.4463H18.9934V9.42578H17.9934H16.9934V12.4463H17.9934ZM17.9934 9.42578V8.42578H11.1389V9.42578V10.4258H17.9934V9.42578ZM11.1389 9.42578H12.1389V5.14062H11.1389H10.1389V9.42578H11.1389ZM11.1389 5.14062V6.14062H17.9934V5.14062V4.14062H11.1389V5.14062ZM17.9934 5.14062H18.9934V0H17.9934H16.9934V5.14062H17.9934ZM17.9934 0V1H22.2776V0V-1H17.9934V0ZM22.2776 0H21.2776V5.14062H22.2776H23.2776V0H22.2776Z" fill="black" mask="url(#path-9-inside-4_51_376)"/>
</svg>
