<svg width="39" height="71" viewBox="0 0 39 71" fill="none" xmlns="http://www.w3.org/2000/svg">
<path d="M19.1855 57.1098C24.4419 57.1098 29.1797 57.8685 32.585 59.0805C34.2898 59.6873 35.6336 60.3991 36.542 61.1635C37.4528 61.93 37.8721 62.701 37.8721 63.4389C37.872 64.1768 37.4528 64.9479 36.542 65.7143C35.6336 66.4787 34.2896 67.1896 32.585 67.7964C29.1797 69.0084 24.442 69.768 19.1855 69.768C13.9293 69.768 9.1923 69.0084 5.78711 67.7964C4.08245 67.1896 2.73847 66.4787 1.83008 65.7143C0.919302 64.9479 0.500076 64.1768 0.5 63.4389C0.5 62.701 0.91922 61.93 1.83008 61.1635C2.73848 60.3991 4.08231 59.6873 5.78711 59.0805C9.19228 57.8686 13.9294 57.1099 19.1855 57.1098Z" fill="#5E5E5E" stroke="black"/>
<mask id="path-2-inside-1_51_317" fill="white">
<path d="M30.8193 44.959C29.3908 46.3775 28.5294 48.2063 28.5293 50.2031C28.5293 51.8149 29.0898 53.3178 30.0576 54.583C33.7574 55.6995 36.1035 57.3574 36.1035 59.2109C36.1032 62.5728 28.3865 65.2978 18.8682 65.2978C9.35007 65.2977 1.63415 62.5728 1.63379 59.2109C1.63379 57.4182 3.82792 55.8064 7.31934 54.6924C8.34006 53.4045 8.93555 51.8624 8.93555 50.2031C8.93548 48.2064 8.07495 46.3775 6.64648 44.959H30.8193Z"/>
</mask>
<path d="M30.8193 44.959C29.3908 46.3775 28.5294 48.2063 28.5293 50.2031C28.5293 51.8149 29.0898 53.3178 30.0576 54.583C33.7574 55.6995 36.1035 57.3574 36.1035 59.2109C36.1032 62.5728 28.3865 65.2978 18.8682 65.2978C9.35007 65.2977 1.63415 62.5728 1.63379 59.2109C1.63379 57.4182 3.82792 55.8064 7.31934 54.6924C8.34006 53.4045 8.93555 51.8624 8.93555 50.2031C8.93548 48.2064 8.07495 46.3775 6.64648 44.959H30.8193Z" fill="#5E5E5E"/>
<path d="M30.8193 44.959L31.524 45.6685L33.2455 43.959H30.8193V44.959ZM28.5293 50.2031L27.5293 50.2031V50.2031H28.5293ZM30.0576 54.583L29.2634 55.1905L29.4596 55.447L29.7687 55.5403L30.0576 54.583ZM36.1035 59.2109L37.1035 59.211V59.2109H36.1035ZM18.8682 65.2978L18.8682 66.2978H18.8682V65.2978ZM1.63379 59.2109L0.633789 59.2109L0.633789 59.211L1.63379 59.2109ZM7.31934 54.6924L7.62331 55.645L7.91371 55.5524L8.10304 55.3135L7.31934 54.6924ZM8.93555 50.2031L9.93555 50.2031L9.93555 50.2031L8.93555 50.2031ZM6.64648 44.959V43.959H4.22033L5.94184 45.6685L6.64648 44.959ZM30.8193 44.959L30.1147 44.2494C28.5232 45.8298 27.5294 47.9053 27.5293 50.2031L28.5293 50.2031L29.5293 50.2031C29.5294 48.5074 30.2584 46.9253 31.524 45.6685L30.8193 44.959ZM28.5293 50.2031H27.5293C27.5293 52.0548 28.175 53.7677 29.2634 55.1905L30.0576 54.583L30.8519 53.9754C30.0047 52.8679 29.5293 51.5751 29.5293 50.2031H28.5293ZM30.0576 54.583L29.7687 55.5403C31.5578 56.0803 32.9479 56.7314 33.8685 57.4209C34.8048 58.1223 35.1035 58.74 35.1035 59.2109H36.1035H37.1035C37.1035 57.8283 36.2292 56.6903 35.0675 55.8202C33.89 54.9382 32.2571 54.2022 30.3465 53.6256L30.0576 54.583ZM36.1035 59.2109L35.1035 59.2108C35.1035 59.6382 34.8607 60.1842 34.1079 60.8127C33.3607 61.4366 32.2198 62.0432 30.7221 62.5722C27.7357 63.6268 23.5447 64.2978 18.8682 64.2978V65.2978V66.2978C23.7099 66.2978 28.1364 65.6063 31.3881 64.458C33.0094 63.8854 34.3926 63.1805 35.3898 62.3479C36.3814 61.52 37.1034 60.4646 37.1035 59.211L36.1035 59.2109ZM18.8682 65.2978L18.8682 64.2978C14.1917 64.2978 10.001 63.6267 7.01485 62.5721C5.51727 62.0432 4.37641 61.4365 3.62927 60.8127C2.87656 60.1842 2.63384 59.6382 2.63379 59.2108L1.63379 59.2109L0.633789 59.211C0.633925 60.4646 1.35582 61.5199 2.3474 62.3479C3.34453 63.1805 4.7276 63.8854 6.34881 64.4579C9.60023 65.6063 14.0265 66.2978 18.8682 66.2978L18.8682 65.2978ZM1.63379 59.2109H2.63379C2.63379 58.7552 2.91199 58.1627 3.78133 57.4864C4.63886 56.8192 5.93879 56.1825 7.62331 55.645L7.31934 54.6924L7.01536 53.7397C5.20847 54.3162 3.66563 55.0424 2.55324 55.9078C1.45265 56.7641 0.633789 57.8738 0.633789 59.2109H1.63379ZM7.31934 54.6924L8.10304 55.3135C9.24913 53.8674 9.93555 52.1105 9.93555 50.2031H8.93555H7.93555C7.93555 51.6143 7.43099 52.9415 6.53563 54.0712L7.31934 54.6924ZM8.93555 50.2031L9.93555 50.2031C9.93546 47.9056 8.94281 45.83 7.35112 44.2494L6.64648 44.959L5.94184 45.6685C7.2071 46.925 7.93549 48.5071 7.93555 50.2031L8.93555 50.2031ZM6.64648 44.959V45.959H30.8193V44.959V43.959H6.64648V44.959Z" fill="black" mask="url(#path-2-inside-1_51_317)"/>
<path d="M12.812 6.79492C13.2293 5.34973 15.2776 5.34972 15.6948 6.79492L16.9243 11.0547C17.2011 12.0138 16.4812 12.9707 15.4829 12.9707H13.0239C12.0257 12.9707 11.3057 12.0138 11.5825 11.0547L12.812 6.79492Z" fill="#5E5E5E" stroke="black"/>
<path d="M16.4957 4.40591C17.3535 2.27744 20.4881 2.34832 21.194 4.6188L22.6461 9.29068L29.9274 13.9577L29.9283 13.9586L30.0709 14.0504L30.2125 14.1413L30.3278 14.4557L35.4908 28.568L35.6139 28.9049L35.7369 29.2428L35.1764 29.692L27.0582 36.1842L27.8444 39.7282C31.0866 40.8597 33.1676 42.6105 33.1676 44.5778C33.1676 47.99 26.9076 50.7565 19.1852 50.7565C11.4629 50.7564 5.20277 47.99 5.20276 44.5778C5.20276 42.855 6.79861 41.297 9.37268 40.1764L8.43225 38.9499H8.43127L8.22327 38.6774L8.01624 38.4059L8.19299 38.1149L8.36975 37.8219L13.1862 29.8844L13.2115 29.8424L13.2418 29.7917L13.2828 29.7497L13.3199 29.7116L16.5035 26.36L17.4537 24.4694L11.2887 25.1706L7.39124 27.6969V27.7604L7.06409 27.8805L6.98303 27.9108H6.97815C6.93957 27.9243 6.89001 27.9413 6.83655 27.9596C6.69976 28.0066 6.50395 28.0735 6.27307 28.1442C5.82023 28.2828 5.20339 28.451 4.61487 28.5446C4.32087 28.5913 4.00489 28.6233 3.70471 28.6159C3.42778 28.609 3.04404 28.5672 2.69885 28.3698C2.33188 28.1596 2.0637 27.8022 1.99963 27.3503L1.98499 27.151C1.98163 26.7069 2.16914 26.2929 2.37561 25.9528C3.0729 24.8046 3.80611 23.6745 4.36194 22.8336C4.63941 22.4139 4.87344 22.0627 5.03967 21.817C5.12166 21.6959 5.1939 21.5916 5.23401 21.5329C5.23976 21.5244 5.24465 21.5156 5.25061 21.5065L7.59729 16.276V11.2174L8.37659 11.0417L14.8981 9.56216C14.9147 9.47681 14.9358 9.39051 14.9625 9.30435L16.4196 4.6188L16.4957 4.40591ZM6.88928 27.9118C6.89108 27.9118 6.89324 27.9109 6.89514 27.9108C6.89145 27.9108 6.88768 27.9108 6.8844 27.9108C6.88579 27.9108 6.88781 27.9117 6.88928 27.9118Z" fill="#5E5E5E"/>
<path d="M16.4957 4.40591L16.032 4.21902L16.0283 4.22818L16.025 4.23747L16.4957 4.40591ZM21.194 4.6188L21.6714 4.4704L21.6714 4.47037L21.194 4.6188ZM22.6461 9.29068L22.1687 9.43909L22.2228 9.61323L22.3763 9.71163L22.6461 9.29068ZM29.9274 13.9577L30.2809 13.6041L30.2427 13.5659L30.1972 13.5367L29.9274 13.9577ZM29.9283 13.9586L29.5748 14.3122L29.6127 14.3501L29.6577 14.3791L29.9283 13.9586ZM30.0709 14.0504L29.8003 14.4708L29.801 14.4713L30.0709 14.0504ZM30.2125 14.1413L30.682 13.9692L30.6241 13.8112L30.4825 13.7204L30.2125 14.1413ZM30.3278 14.4557L30.7973 14.2839L30.7972 14.2837L30.3278 14.4557ZM35.4908 28.568L35.9605 28.3965L35.9604 28.3962L35.4908 28.568ZM35.6139 28.9049L36.0837 28.7338L36.0835 28.7334L35.6139 28.9049ZM35.7369 29.2428L36.0496 29.633L36.3295 29.4087L36.2068 29.0717L35.7369 29.2428ZM35.1764 29.692L35.4887 30.0825L35.4891 30.0822L35.1764 29.692ZM27.0582 36.1842L26.7459 35.7937L26.5026 35.9883L26.5701 36.2925L27.0582 36.1842ZM27.8444 39.7282L27.3562 39.8365L27.4166 40.1085L27.6796 40.2003L27.8444 39.7282ZM33.1676 44.5778L33.6676 44.5778V44.5778H33.1676ZM19.1852 50.7565L19.1852 51.2565H19.1852V50.7565ZM5.20276 44.5778L4.70276 44.5778L4.70276 44.5778L5.20276 44.5778ZM9.37268 40.1764L9.57225 40.6349L10.1585 40.3796L9.76947 39.8722L9.37268 40.1764ZM8.43225 38.9499L8.82904 38.6456L8.67894 38.4499H8.43225V38.9499ZM8.43127 38.9499L8.03385 39.2533L8.18394 39.4499H8.43127V38.9499ZM8.22327 38.6774L7.82568 38.9806L7.82585 38.9808L8.22327 38.6774ZM8.01624 38.4059L7.58889 38.1464L7.41182 38.4379L7.61865 38.7091L8.01624 38.4059ZM8.19299 38.1149L8.62034 38.3745L8.62111 38.3732L8.19299 38.1149ZM8.36975 37.8219L7.94229 37.5625L7.94164 37.5636L8.36975 37.8219ZM13.1862 29.8844L13.6136 30.1438L13.614 30.1431L13.1862 29.8844ZM13.2115 29.8424L13.6394 30.1012L13.641 30.0985L13.2115 29.8424ZM13.2418 29.7917L12.8841 29.4423L12.8427 29.4847L12.8123 29.5356L13.2418 29.7917ZM13.2828 29.7497L13.6405 30.099L13.641 30.0986L13.2828 29.7497ZM13.3199 29.7116L13.6781 30.0605L13.6825 30.0559L13.3199 29.7116ZM16.5035 26.36L16.8661 26.7044L16.917 26.6507L16.9503 26.5845L16.5035 26.36ZM17.4537 24.4694L17.9005 24.6939L18.3155 23.8682L17.3972 23.9726L17.4537 24.4694ZM11.2887 25.1706L11.2322 24.6738L11.1154 24.6871L11.0167 24.751L11.2887 25.1706ZM7.39124 27.6969L7.11927 27.2774L6.89124 27.4252V27.6969H7.39124ZM7.39124 27.7604L7.56357 28.2298L7.89124 28.1095V27.7604H7.39124ZM7.06409 27.8805L6.89175 27.4112L6.88914 27.4121L7.06409 27.8805ZM6.98303 27.9108V28.4108H7.07336L7.15798 28.3792L6.98303 27.9108ZM6.97815 27.9108V27.4108H6.89301L6.81266 27.439L6.97815 27.9108ZM6.83655 27.9596L6.9988 28.4326L6.99881 28.4326L6.83655 27.9596ZM6.27307 28.1442L6.41945 28.6223L6.41947 28.6223L6.27307 28.1442ZM4.61487 28.5446L4.69328 29.0384L4.69335 29.0384L4.61487 28.5446ZM3.70471 28.6159L3.69226 29.1157L3.69243 29.1157L3.70471 28.6159ZM2.69885 28.3698L2.45036 28.8037L2.45066 28.8038L2.69885 28.3698ZM1.99963 27.3503L1.50098 27.3869L1.50222 27.4037L1.50458 27.4204L1.99963 27.3503ZM1.98499 27.151L1.485 27.1548L1.48512 27.1713L1.48633 27.1877L1.98499 27.151ZM2.37561 25.9528L1.94825 25.6932L1.9482 25.6933L2.37561 25.9528ZM4.36194 22.8336L3.94483 22.5579L3.94483 22.5579L4.36194 22.8336ZM5.03967 21.817L4.62558 21.5368L4.62557 21.5368L5.03967 21.817ZM5.23401 21.5329L5.64688 21.8149L5.64692 21.8148L5.23401 21.5329ZM5.25061 21.5065L5.66848 21.7811L5.69043 21.7476L5.7068 21.7112L5.25061 21.5065ZM7.59729 16.276L8.05348 16.4807L8.09729 16.3831V16.276H7.59729ZM7.59729 11.2174L7.48727 10.7297L7.09729 10.8177V11.2174H7.59729ZM8.37659 11.0417L8.4866 11.5294L8.48721 11.5293L8.37659 11.0417ZM14.8981 9.56216L15.0087 10.0498L15.3264 9.97769L15.3888 9.65789L14.8981 9.56216ZM14.9625 9.30435L14.4851 9.15588L14.485 9.15601L14.9625 9.30435ZM16.4196 4.6188L15.9488 4.45036L15.9452 4.46028L15.9421 4.47034L16.4196 4.6188ZM6.88928 27.9118L6.85432 28.4105L6.87222 28.4118L6.89017 28.4118L6.88928 27.9118ZM6.89514 27.9108L6.92414 28.41L6.89093 27.4108L6.89514 27.9108ZM6.8844 27.9108L6.88846 27.4108L6.87804 28.4108L6.8844 27.9108ZM16.4957 4.40591L16.9595 4.59281C17.6449 2.89192 20.153 2.95453 20.7165 4.76724L21.194 4.6188L21.6714 4.47037C20.8233 1.74212 17.0621 1.66296 16.032 4.21902L16.4957 4.40591ZM21.194 4.6188L20.7165 4.76721L22.1687 9.43909L22.6461 9.29068L23.1236 9.14227L21.6714 4.4704L21.194 4.6188ZM22.6461 9.29068L22.3763 9.71163L29.6576 14.3786L29.9274 13.9577L30.1972 13.5367L22.9159 8.86973L22.6461 9.29068ZM29.9274 13.9577L29.5738 14.3112L29.5748 14.3122L29.9283 13.9586L30.2819 13.6051L30.2809 13.6041L29.9274 13.9577ZM29.9283 13.9586L29.6577 14.3791L29.8003 14.4708L30.0709 14.0504L30.3416 13.63L30.199 13.5382L29.9283 13.9586ZM30.0709 14.0504L29.801 14.4713L29.9426 14.5621L30.2125 14.1413L30.4825 13.7204L30.3409 13.6296L30.0709 14.0504ZM30.2125 14.1413L29.7431 14.3133L29.8583 14.6278L30.3278 14.4557L30.7972 14.2837L30.682 13.9692L30.2125 14.1413ZM30.3278 14.4557L29.8582 14.6275L35.0213 28.7398L35.4908 28.568L35.9604 28.3962L30.7973 14.2839L30.3278 14.4557ZM35.4908 28.568L35.0212 28.7396L35.1442 29.0765L35.6139 28.9049L36.0835 28.7334L35.9605 28.3965L35.4908 28.568ZM35.6139 28.9049L35.1441 29.076L35.2671 29.4139L35.7369 29.2428L36.2068 29.0717L36.0837 28.7338L35.6139 28.9049ZM35.7369 29.2428L35.4243 28.8527L34.8637 29.3019L35.1764 29.692L35.4891 30.0822L36.0496 29.633L35.7369 29.2428ZM35.1764 29.692L34.8641 29.3016L26.7459 35.7937L27.0582 36.1842L27.3705 36.5747L35.4887 30.0825L35.1764 29.692ZM27.0582 36.1842L26.5701 36.2925L27.3562 39.8365L27.8444 39.7282L28.3325 39.6199L27.5464 36.076L27.0582 36.1842ZM27.8444 39.7282L27.6796 40.2003C29.2624 40.7526 30.5283 41.4454 31.3891 42.2128C32.2498 42.98 32.6676 43.7843 32.6676 44.5778H33.1676H33.6676C33.6676 43.4041 33.0449 42.3492 32.0545 41.4663C31.0643 40.5836 29.6686 39.8352 28.0091 39.2561L27.8444 39.7282ZM33.1676 44.5778L32.6676 44.5778C32.6676 45.2671 32.3535 45.9622 31.7076 46.637C31.0593 47.3143 30.0973 47.9471 28.8702 48.4894C26.4172 49.5734 22.9935 50.2565 19.1852 50.2565V50.7565V51.2565C23.0992 51.2565 26.6667 50.5564 29.2744 49.4041C30.5775 48.8282 31.6633 48.1295 32.43 47.3285C33.1992 46.5249 33.6676 45.5945 33.6676 44.5778L33.1676 44.5778ZM19.1852 50.7565L19.1852 50.2565C15.3769 50.2565 11.9532 49.5733 9.50022 48.4894C8.27306 47.9471 7.3111 47.3143 6.66277 46.637C6.01685 45.9622 5.70276 45.2671 5.70276 44.5778L5.20276 44.5778L4.70276 44.5778C4.70276 45.5945 5.17119 46.5249 5.94037 47.3285C6.70714 48.1295 7.79285 48.8282 9.09602 49.404C11.7037 50.5564 15.2712 51.2565 19.1852 51.2565L19.1852 50.7565ZM5.20276 44.5778H5.70276C5.70276 43.8818 6.02302 43.1798 6.68179 42.4989C7.34288 41.8156 8.32324 41.1786 9.57225 40.6349L9.37268 40.1764L9.17311 39.718C7.84805 40.2948 6.74345 40.997 5.9631 41.8036C5.18043 42.6126 4.70276 43.551 4.70276 44.5778H5.20276ZM9.37268 40.1764L9.76947 39.8722L8.82904 38.6456L8.43225 38.9499L8.03546 39.2541L8.97589 40.4807L9.37268 40.1764ZM8.43225 38.9499V38.4499H8.43127V38.9499V39.4499H8.43225V38.9499ZM8.43127 38.9499L8.8287 38.6465L8.62069 38.374L8.22327 38.6774L7.82585 38.9808L8.03385 39.2533L8.43127 38.9499ZM8.22327 38.6774L8.62085 38.3742L8.41382 38.1027L8.01624 38.4059L7.61865 38.7091L7.82568 38.9806L8.22327 38.6774ZM8.01624 38.4059L8.44358 38.6655L8.62034 38.3745L8.19299 38.1149L7.76564 37.8553L7.58889 38.1464L8.01624 38.4059ZM8.19299 38.1149L8.62111 38.3732L8.79787 38.0802L8.36975 37.8219L7.94164 37.5636L7.76488 37.8566L8.19299 38.1149ZM8.36975 37.8219L8.79721 38.0813L13.6136 30.1438L13.1862 29.8844L12.7587 29.6251L7.94229 37.5626L8.36975 37.8219ZM13.1862 29.8844L13.614 30.1431L13.6394 30.1011L13.2115 29.8424L12.7837 29.5837L12.7583 29.6257L13.1862 29.8844ZM13.2115 29.8424L13.641 30.0985L13.6713 30.0477L13.2418 29.7917L12.8123 29.5356L12.7821 29.5864L13.2115 29.8424ZM13.2418 29.7917L13.5995 30.141L13.6405 30.099L13.2828 29.7497L12.9251 29.4003L12.8841 29.4423L13.2418 29.7917ZM13.2828 29.7497L13.641 30.0986L13.6781 30.0605L13.3199 29.7116L12.9618 29.3626L12.9247 29.4007L13.2828 29.7497ZM13.3199 29.7116L13.6825 30.0559L16.8661 26.7044L16.5035 26.36L16.141 26.0157L12.9574 29.3672L13.3199 29.7116ZM16.5035 26.36L16.9503 26.5845L17.9005 24.6939L17.4537 24.4694L17.007 24.2449L16.0568 26.1355L16.5035 26.36ZM17.4537 24.4694L17.3972 23.9726L11.2322 24.6738L11.2887 25.1706L11.3452 25.6674L17.5102 24.9662L17.4537 24.4694ZM11.2887 25.1706L11.0167 24.751L7.11927 27.2774L7.39124 27.6969L7.6632 28.1165L11.5607 25.5901L11.2887 25.1706ZM7.39124 27.6969H6.89124V27.7604H7.39124H7.89124V27.6969H7.39124ZM7.39124 27.7604L7.2189 27.291L6.89175 27.4112L7.06409 27.8805L7.23642 28.3499L7.56357 28.2298L7.39124 27.7604ZM7.06409 27.8805L6.88914 27.4121L6.80809 27.4424L6.98303 27.9108L7.15798 28.3792L7.23903 28.3489L7.06409 27.8805ZM6.98303 27.9108V27.4108H6.97815V27.9108V28.4108H6.98303V27.9108ZM6.97815 27.9108L6.81266 27.439C6.77615 27.4518 6.72882 27.468 6.67429 27.4867L6.83655 27.9596L6.99881 28.4326C7.0512 28.4146 7.10298 28.3969 7.14364 28.3826L6.97815 27.9108ZM6.83655 27.9596L6.67429 27.4867C6.53826 27.5334 6.34908 27.598 6.12667 27.6661L6.27307 28.1442L6.41947 28.6223C6.65882 28.549 6.86127 28.4797 6.9988 28.4326L6.83655 27.9596ZM6.27307 28.1442L6.12669 27.6661C5.68347 27.8018 5.09181 27.9625 4.53638 28.0508L4.61487 28.5446L4.69335 29.0384C5.31496 28.9396 5.95698 28.7639 6.41945 28.6223L6.27307 28.1442ZM4.61487 28.5446L4.53645 28.0508C4.25971 28.0947 3.9762 28.1224 3.71699 28.116L3.70471 28.6159L3.69243 29.1157C4.03359 29.1241 4.38202 29.0878 4.69328 29.0384L4.61487 28.5446ZM3.70471 28.6159L3.71716 28.116C3.47017 28.1099 3.18528 28.072 2.94704 27.9357L2.69885 28.3698L2.45066 28.8038C2.90279 29.0624 3.38539 29.1081 3.69226 29.1157L3.70471 28.6159ZM2.69885 28.3698L2.94734 27.9359C2.70333 27.7962 2.53539 27.5672 2.49468 27.2801L1.99963 27.3503L1.50458 27.4204C1.59202 28.0373 1.96042 28.5231 2.45036 28.8037L2.69885 28.3698ZM1.99963 27.3503L2.49829 27.3136L2.48364 27.1144L1.98499 27.151L1.48633 27.1877L1.50098 27.3869L1.99963 27.3503ZM1.98499 27.151L2.48497 27.1473C2.48266 26.8411 2.61406 26.5235 2.80302 26.2123L2.37561 25.9528L1.9482 25.6933C1.72422 26.0623 1.4806 26.5727 1.485 27.1548L1.98499 27.151ZM2.37561 25.9528L2.80297 26.2123C3.4956 25.0719 4.22494 23.9476 4.77905 23.1094L4.36194 22.8336L3.94483 22.5579C3.38728 23.4014 2.65019 24.5374 1.94825 25.6932L2.37561 25.9528ZM4.36194 22.8336L4.77905 23.1094C5.05617 22.6901 5.28905 22.3407 5.45377 22.0973L5.03967 21.817L4.62557 21.5368C4.45784 21.7847 4.22265 22.1376 3.94483 22.5579L4.36194 22.8336ZM5.03967 21.817L5.45377 22.0973C5.53533 21.9767 5.60397 21.8777 5.64688 21.8149L5.23401 21.5329L4.82114 21.2508C4.78383 21.3055 4.70799 21.415 4.62558 21.5368L5.03967 21.817ZM5.23401 21.5329L5.64692 21.8148C5.65788 21.7988 5.66656 21.7844 5.66911 21.7803C5.67016 21.7785 5.67035 21.7782 5.67094 21.7773C5.67134 21.7766 5.67146 21.7764 5.67142 21.7765C5.67135 21.7766 5.67025 21.7784 5.66848 21.7811L5.25061 21.5065L4.83274 21.2319C4.82799 21.2392 4.82404 21.2455 4.8212 21.25C4.81866 21.2542 4.81601 21.2585 4.81535 21.2596C4.81416 21.2615 4.81446 21.261 4.81522 21.2598C4.81609 21.2585 4.81815 21.2552 4.8211 21.2509L5.23401 21.5329ZM5.25061 21.5065L5.7068 21.7112L8.05348 16.4807L7.59729 16.276L7.1411 16.0714L4.79442 21.3018L5.25061 21.5065ZM7.59729 16.276H8.09729V11.2174H7.59729H7.09729V16.276H7.59729ZM7.59729 11.2174L7.70731 11.7052L8.4866 11.5294L8.37659 11.0417L8.26657 10.5539L7.48727 10.7297L7.59729 11.2174ZM8.37659 11.0417L8.48721 11.5293L15.0087 10.0498L14.8981 9.56216L14.7875 9.07455L8.26597 10.554L8.37659 11.0417ZM14.8981 9.56216L15.3888 9.65789C15.4025 9.58798 15.4193 9.51945 15.44 9.45269L14.9625 9.30435L14.485 9.15601C14.4522 9.26157 14.427 9.36563 14.4073 9.46644L14.8981 9.56216ZM14.9625 9.30435L15.44 9.45282L16.897 4.76727L16.4196 4.6188L15.9421 4.47034L14.4851 9.15588L14.9625 9.30435ZM16.4196 4.6188L16.8903 4.78725L16.9665 4.57436L16.4957 4.40591L16.025 4.23747L15.9488 4.45036L16.4196 4.6188ZM6.88928 27.9118L6.89017 28.4118C6.91003 28.4117 6.92725 28.4105 6.94099 28.4091C6.95474 28.4077 6.96637 28.406 6.97508 28.4045C6.98379 28.403 6.99088 28.4015 6.99541 28.4006C6.99981 28.3996 7.00332 28.3988 7.00404 28.3987C7.00592 28.3982 7.00357 28.3988 7.0019 28.3991C6.99962 28.3996 6.99489 28.4007 6.98883 28.4019C6.98273 28.403 6.97408 28.4046 6.96362 28.4061C6.95317 28.4075 6.93978 28.409 6.92414 28.41L6.89514 27.9108L6.86614 27.4116C6.85003 27.4126 6.83616 27.4142 6.82521 27.4157C6.81427 27.4172 6.80512 27.4189 6.79852 27.4201C6.79196 27.4214 6.78673 27.4226 6.78395 27.4232C6.78178 27.4237 6.77893 27.4243 6.78031 27.424C6.78053 27.4239 6.78354 27.4233 6.78744 27.4224C6.79148 27.4216 6.79808 27.4202 6.8063 27.4188C6.81453 27.4174 6.82567 27.4157 6.83896 27.4143C6.85223 27.413 6.86898 27.4118 6.88839 27.4118L6.88928 27.9118ZM6.89514 27.9108L6.89093 27.4108L6.89076 27.4108L6.8844 27.9108L6.87804 28.4108C6.88651 28.4109 6.89433 28.4108 6.89935 28.4108L6.89514 27.9108ZM6.8844 27.9108L6.88034 28.4108C6.85586 28.4106 6.83539 28.4086 6.82058 28.4067C6.80558 28.4047 6.79325 28.4024 6.78471 28.4007C6.77609 28.3989 6.76923 28.3972 6.76521 28.3962C6.76128 28.3953 6.75824 28.3944 6.75804 28.3944C6.75668 28.394 6.75949 28.3948 6.7617 28.3953C6.76445 28.3961 6.76986 28.3974 6.77668 28.399C6.78348 28.4006 6.79349 28.4027 6.80568 28.4048C6.81774 28.4068 6.83439 28.4092 6.85432 28.4105L6.88928 27.9118L6.92425 27.413C6.9438 27.4144 6.96007 27.4167 6.97173 27.4186C6.98352 27.4206 6.99312 27.4227 6.99951 27.4241C7.00591 27.4256 7.0109 27.4269 7.01322 27.4275C7.015 27.428 7.01737 27.4286 7.01558 27.4281C7.01495 27.4279 7.01148 27.427 7.00713 27.4259C7.00268 27.4248 6.9954 27.4231 6.98637 27.4212C6.97743 27.4194 6.9647 27.417 6.94932 27.415C6.93413 27.413 6.91328 27.411 6.88846 27.4108L6.8844 27.9108Z" fill="black"/>
<path d="M17.2924 15.1953C17.6476 15.1953 17.8588 15.3245 17.9955 15.5048C18.1466 15.7044 18.2435 16.0189 18.2435 16.4277C18.2435 16.5053 18.2114 16.6044 18.0951 16.7285C17.9752 16.8561 17.7876 16.9853 17.5443 17.1005C17.0547 17.3325 16.4471 17.4589 16.0219 17.4589C15.4773 17.4589 15.017 17.4776 14.6703 17.3974C14.5074 17.3597 14.431 17.3115 14.3978 17.2783C14.3787 17.2591 14.3451 17.2182 14.3451 17.0917C14.3454 17.0462 14.3888 16.8968 14.6127 16.6503C14.8199 16.4222 15.1206 16.1791 15.4662 15.954C15.8095 15.7305 16.1808 15.5354 16.5189 15.3984C16.8693 15.2565 17.1387 15.1953 17.2924 15.1953Z" fill="#5E5E5E" stroke="black"/>
</svg>
