<svg width="34" height="49" viewBox="0 0 34 49" fill="none" xmlns="http://www.w3.org/2000/svg">
<path d="M16.7363 36.4217C21.3118 36.4217 25.4313 37.1465 28.3887 38.3006C29.8689 38.8783 31.0331 39.5536 31.8184 40.2782C32.6031 41.0022 32.9727 41.7377 32.9727 42.453C32.9726 43.1682 32.6031 43.9037 31.8184 44.6278C31.0331 45.3523 29.8689 46.0277 28.3887 46.6053C25.4313 47.7594 21.3118 48.4842 16.7363 48.4842C12.1609 48.4842 8.04136 47.7594 5.08398 46.6053C3.60376 46.0277 2.43961 45.3523 1.6543 44.6278C0.869509 43.9037 0.50001 43.1682 0.5 42.453C0.5 41.7377 0.869498 41.0023 1.6543 40.2782C2.43961 39.5536 3.60374 38.8783 5.08398 38.3006C8.04136 37.1466 12.1609 36.4217 16.7363 36.4217Z" fill="#E3E3E3" stroke="black"/>
<mask id="path-2-inside-1_51_45" fill="white">
<path d="M21.9344 20.4101C22.275 26.2615 23.6599 31.2009 25.5682 33.8573C28.4098 34.7554 30.2069 36.0781 30.2069 37.5546C30.2068 40.2599 24.1758 42.453 16.7362 42.453C9.29665 42.453 3.26562 40.2599 3.2655 37.5546C3.2655 36.1675 4.8513 34.9155 7.39929 34.0243C9.37146 31.4117 10.8102 26.3874 11.1581 20.4101H21.9344Z"/>
</mask>
<path d="M21.9344 20.4101C22.275 26.2615 23.6599 31.2009 25.5682 33.8573C28.4098 34.7554 30.2069 36.0781 30.2069 37.5546C30.2068 40.2599 24.1758 42.453 16.7362 42.453C9.29665 42.453 3.26562 40.2599 3.2655 37.5546C3.2655 36.1675 4.8513 34.9155 7.39929 34.0243C9.37146 31.4117 10.8102 26.3874 11.1581 20.4101H21.9344Z" fill="#E3E3E3"/>
<path d="M21.9344 20.4101L22.9328 20.352L22.8779 19.4101H21.9344V20.4101ZM25.5682 33.8573L24.7561 34.4408L24.95 34.7107L25.2669 34.8108L25.5682 33.8573ZM30.2069 37.5546L31.2069 37.5546V37.5546H30.2069ZM16.7362 42.453L16.7362 43.453L16.7362 43.453L16.7362 42.453ZM3.2655 37.5546L2.2655 37.5546L2.2655 37.5546L3.2655 37.5546ZM7.39929 34.0243L7.72945 34.9682L8.0151 34.8683L8.19742 34.6268L7.39929 34.0243ZM11.1581 20.4101V19.4101H10.2146L10.1598 20.352L11.1581 20.4101ZM21.9344 20.4101L20.9361 20.4682C21.2809 26.3931 22.6849 31.5576 24.7561 34.4408L25.5682 33.8573L26.3804 33.2739C24.6349 30.8442 23.269 26.1299 22.9328 20.352L21.9344 20.4101ZM25.5682 33.8573L25.2669 34.8108C26.6249 35.24 27.662 35.7501 28.3381 36.2775C29.0254 36.8136 29.2069 37.2548 29.2069 37.5546H30.2069H31.2069C31.2069 36.3779 30.4899 35.4195 29.5682 34.7005C28.6354 33.973 27.3532 33.3727 25.8696 32.9038L25.5682 33.8573ZM30.2069 37.5546L29.2069 37.5546C29.2069 37.8298 29.0566 38.2213 28.4963 38.703C27.9393 39.1819 27.0748 39.6584 25.9196 40.0785C23.6174 40.9157 20.3707 41.453 16.7362 41.453L16.7362 42.453L16.7362 43.453C20.5412 43.453 24.0298 42.8938 26.6031 41.9581C27.8856 41.4917 28.9938 40.9128 29.8002 40.2196C30.6032 39.5292 31.2069 38.6321 31.2069 37.5546L30.2069 37.5546ZM16.7362 42.453V41.453C13.1017 41.453 9.855 40.9157 7.55281 40.0785C6.3976 39.6584 5.5331 39.1819 4.97608 38.703C4.41581 38.2213 4.26552 37.8298 4.2655 37.5546L3.2655 37.5546L2.2655 37.5546C2.26555 38.6321 2.86918 39.5292 3.67225 40.2196C4.47857 40.9128 5.58681 41.4917 6.86932 41.9581C9.44256 42.8938 12.9312 43.453 16.7362 43.453V42.453ZM3.2655 37.5546H4.2655C4.2655 37.2726 4.42403 36.8676 5.01834 36.3707C5.60749 35.8781 6.51878 35.3917 7.72945 34.9682L7.39929 34.0243L7.06913 33.0804C5.73181 33.5482 4.5762 34.1334 3.73546 34.8363C2.89987 35.535 2.2655 36.4494 2.2655 37.5546H3.2655ZM7.39929 34.0243L8.19742 34.6268C10.3471 31.7791 11.8044 26.5162 12.1564 20.4682L11.1581 20.4101L10.1598 20.352C9.81603 26.2586 8.39581 31.0444 6.60116 33.4218L7.39929 34.0243ZM11.1581 20.4101V21.4101H21.9344V20.4101V19.4101H11.1581V20.4101Z" fill="black" mask="url(#path-2-inside-1_51_45)"/>
<path d="M16.7362 16.8281C19.7313 16.8281 22.4196 17.3237 24.3407 18.1064C25.3025 18.4982 26.048 18.9521 26.5448 19.4306C27.0401 19.9077 27.2577 20.3767 27.2577 20.8183C27.2577 21.2599 27.0401 21.7289 26.5448 22.206C26.048 22.6845 25.3025 23.1384 24.3407 23.5302C22.4196 24.3128 19.7313 24.8085 16.7362 24.8085C13.7411 24.8085 11.0528 24.3128 9.13171 23.5302C8.16992 23.1384 7.4244 22.6845 6.92761 22.206C6.43225 21.7288 6.21473 21.2599 6.21472 20.8183C6.21472 20.3767 6.43226 19.9078 6.92761 19.4306C7.4244 18.9521 8.16992 18.4982 9.13171 18.1064C11.0528 17.3238 13.7411 16.8281 16.7362 16.8281Z" fill="#E3E3E3" stroke="black"/>
<circle cx="16.7362" cy="9.38863" r="8.88863" fill="#E3E3E3" stroke="black"/>
</svg>
