<svg width="39" height="76" viewBox="0 0 39 76" fill="none" xmlns="http://www.w3.org/2000/svg">
<path d="M19.1855 62.0082C24.4419 62.0082 29.1797 62.7669 32.585 63.9789C34.2898 64.5857 35.6336 65.2975 36.542 66.062C37.4528 66.8284 37.8721 67.5994 37.8721 68.3373C37.872 69.0752 37.4528 69.8463 36.542 70.6127C35.6336 71.3771 34.2896 72.088 32.585 72.6948C29.1797 73.9068 24.442 74.6664 19.1855 74.6664C13.9293 74.6664 9.1923 73.9068 5.78711 72.6948C4.08245 72.088 2.73847 71.3771 1.83008 70.6127C0.919302 69.8463 0.500076 69.0752 0.5 68.3373C0.5 67.5994 0.91922 66.8285 1.83008 66.062C2.73848 65.2975 4.08231 64.5857 5.78711 63.9789C9.19228 62.767 13.9294 62.0083 19.1855 62.0082Z" fill="#5E5E5E" stroke="black"/>
<mask id="path-2-inside-1_51_353" fill="white">
<path d="M30.8184 49.8574C29.3898 51.2759 28.5284 53.1047 28.5283 55.1015C28.5283 56.7133 29.0889 58.2162 30.0566 59.4814C33.7564 60.5979 36.1025 62.2558 36.1025 64.1093C36.1022 67.4712 28.3855 70.1962 18.8672 70.1962C9.34909 70.1961 1.63317 67.4712 1.63281 64.1093C1.63281 62.3166 3.82695 60.7048 7.31836 59.5908C8.33908 58.3029 8.93457 56.7608 8.93457 55.1015C8.9345 53.1048 8.07398 51.2759 6.64551 49.8574H30.8184Z"/>
</mask>
<path d="M30.8184 49.8574C29.3898 51.2759 28.5284 53.1047 28.5283 55.1015C28.5283 56.7133 29.0889 58.2162 30.0566 59.4814C33.7564 60.5979 36.1025 62.2558 36.1025 64.1093C36.1022 67.4712 28.3855 70.1962 18.8672 70.1962C9.34909 70.1961 1.63317 67.4712 1.63281 64.1093C1.63281 62.3166 3.82695 60.7048 7.31836 59.5908C8.33908 58.3029 8.93457 56.7608 8.93457 55.1015C8.9345 53.1048 8.07398 51.2759 6.64551 49.8574H30.8184Z" fill="#5E5E5E"/>
<path d="M30.8184 49.8574L31.523 50.5669L33.2446 48.8574H30.8184V49.8574ZM28.5283 55.1015L27.5283 55.1015V55.1015H28.5283ZM30.0566 59.4814L29.2624 60.089L29.4586 60.3454L29.7677 60.4387L30.0566 59.4814ZM36.1025 64.1093L37.1025 64.1094V64.1093H36.1025ZM18.8672 70.1962L18.8672 71.1962H18.8672V70.1962ZM1.63281 64.1093L0.632812 64.1093L0.632813 64.1094L1.63281 64.1093ZM7.31836 59.5908L7.62234 60.5434L7.91273 60.4508L8.10206 60.2119L7.31836 59.5908ZM8.93457 55.1015L9.93457 55.1015L9.93457 55.1015L8.93457 55.1015ZM6.64551 49.8574V48.8574H4.21935L5.94087 50.5669L6.64551 49.8574ZM30.8184 49.8574L30.1137 49.1478C28.5222 50.7282 27.5284 52.8037 27.5283 55.1015L28.5283 55.1015L29.5283 55.1015C29.5284 53.4058 30.2574 51.8237 31.523 50.5669L30.8184 49.8574ZM28.5283 55.1015H27.5283C27.5283 56.9532 28.174 58.6661 29.2624 60.089L30.0566 59.4814L30.8509 58.8738C30.0037 57.7663 29.5283 56.4735 29.5283 55.1015H28.5283ZM30.0566 59.4814L29.7677 60.4387C31.5569 60.9787 32.9469 61.6298 33.8675 62.3193C34.8038 63.0207 35.1025 63.6384 35.1025 64.1093H36.1025H37.1025C37.1025 62.7267 36.2282 61.5887 35.0665 60.7186C33.889 59.8366 32.2562 59.1006 30.3456 58.524L30.0566 59.4814ZM36.1025 64.1093L35.1025 64.1092C35.1025 64.5366 34.8598 65.0826 34.107 65.7111C33.3598 66.335 32.2188 66.9416 30.7211 67.4706C27.7347 68.5252 23.5438 69.1962 18.8672 69.1962V70.1962V71.1962C23.7089 71.1962 28.1355 70.5047 31.3871 69.3564C33.0084 68.7838 34.3916 68.0789 35.3888 67.2463C36.3804 66.4184 37.1024 65.363 37.1025 64.1094L36.1025 64.1093ZM18.8672 70.1962L18.8672 69.1962C14.1907 69.1962 10 68.5252 7.01387 67.4705C5.51629 66.9416 4.37543 66.3349 3.62829 65.7111C2.87558 65.0826 2.63286 64.5366 2.63281 64.1092L1.63281 64.1093L0.632813 64.1094C0.632947 65.363 1.35485 66.4183 2.34642 67.2463C3.34355 68.0789 4.72662 68.7838 6.34783 69.3564C9.59925 70.5047 14.0256 71.1962 18.8672 71.1962L18.8672 70.1962ZM1.63281 64.1093H2.63281C2.63281 63.6536 2.91101 63.0611 3.78035 62.3848C4.63788 61.7176 5.93782 61.0809 7.62234 60.5434L7.31836 59.5908L7.01438 58.6381C5.20749 59.2146 3.66465 59.9408 2.55226 60.8062C1.45168 61.6625 0.632812 62.7722 0.632812 64.1093H1.63281ZM7.31836 59.5908L8.10206 60.2119C9.24816 58.7658 9.93457 57.0089 9.93457 55.1015H8.93457H7.93457C7.93457 56.5127 7.43001 57.8399 6.53466 58.9696L7.31836 59.5908ZM8.93457 55.1015L9.93457 55.1015C9.93449 52.804 8.94184 50.7284 7.35015 49.1478L6.64551 49.8574L5.94087 50.5669C7.20612 51.8234 7.93451 53.4055 7.93457 55.1015L8.93457 55.1015ZM6.64551 49.8574V50.8574H30.8184V49.8574V48.8574H6.64551V49.8574Z" fill="black" mask="url(#path-2-inside-1_51_353)"/>
<path d="M18.8809 43.7979C22.6892 43.7979 26.1134 44.4806 28.5664 45.5645C29.7934 46.1066 30.755 46.7398 31.4033 47.417C32.0492 48.0918 32.3633 48.7872 32.3633 49.4766C32.3632 50.1658 32.0491 50.8605 31.4033 51.5352C30.755 52.2124 29.7935 52.8455 28.5664 53.3877C26.1134 54.4716 22.6892 55.1543 18.8809 55.1543C15.0728 55.1543 11.6492 54.4715 9.19629 53.3877C7.96912 52.8455 7.00673 52.2125 6.3584 51.5352C5.71267 50.8605 5.39854 50.1658 5.39844 49.4766C5.39844 48.7872 5.71247 48.0918 6.3584 47.417C7.00673 46.7397 7.96913 46.1067 9.19629 45.5645C11.6492 44.4807 15.0728 43.7979 18.8809 43.7979Z" fill="#5E5E5E" stroke="black"/>
<mask id="path-5-inside-2_51_353" fill="white">
<path d="M26.4756 20.4101C25.4675 23.415 24.8448 27.5404 24.8447 32.0927C24.8447 37.3684 25.6847 42.0695 26.9883 45.119C28.3276 45.5911 29.126 46.1849 29.126 46.831C29.1253 48.3661 24.6163 49.6102 19.0537 49.6103C13.4911 49.6103 8.98119 48.3661 8.98047 46.831C8.98047 46.2478 9.63125 45.7057 10.7432 45.2587C12.0812 42.2141 12.9463 37.4495 12.9463 32.0927C12.9462 27.5402 12.3226 23.4151 11.3145 20.4101H26.4756Z"/>
</mask>
<path d="M26.4756 20.4101C25.4675 23.415 24.8448 27.5404 24.8447 32.0927C24.8447 37.3684 25.6847 42.0695 26.9883 45.119C28.3276 45.5911 29.126 46.1849 29.126 46.831C29.1253 48.3661 24.6163 49.6102 19.0537 49.6103C13.4911 49.6103 8.98119 48.3661 8.98047 46.831C8.98047 46.2478 9.63125 45.7057 10.7432 45.2587C12.0812 42.2141 12.9463 37.4495 12.9463 32.0927C12.9462 27.5402 12.3226 23.4151 11.3145 20.4101H26.4756Z" fill="#5E5E5E"/>
<path d="M26.4756 20.4101L27.4237 20.7281L27.8658 19.4101H26.4756V20.4101ZM24.8447 32.0927L23.8447 32.0927V32.0927H24.8447ZM26.9883 45.119L26.0688 45.5121L26.2415 45.9161L26.6559 46.0622L26.9883 45.119ZM29.126 46.831L30.126 46.8314V46.831H29.126ZM19.0537 49.6103L19.0537 50.6103L19.0537 50.6103L19.0537 49.6103ZM8.98047 46.831L7.98047 46.831L7.98047 46.8314L8.98047 46.831ZM10.7432 45.2587L11.1162 46.1865L11.4946 46.0344L11.6587 45.661L10.7432 45.2587ZM12.9463 32.0927L13.9463 32.0927L13.9463 32.0927L12.9463 32.0927ZM11.3145 20.4101V19.4101H9.92419L10.3664 20.7281L11.3145 20.4101ZM26.4756 20.4101L25.5275 20.092C24.4769 23.2238 23.8448 27.4613 23.8447 32.0927L24.8447 32.0927L25.8447 32.0927C25.8448 27.6195 26.4581 23.6063 27.4237 20.7281L26.4756 20.4101ZM24.8447 32.0927H23.8447C23.8447 37.4514 24.6949 42.298 26.0688 45.5121L26.9883 45.119L27.9078 44.726C26.6746 41.841 25.8447 37.2854 25.8447 32.0927H24.8447ZM26.9883 45.119L26.6559 46.0622C27.2749 46.2804 27.6955 46.5028 27.9417 46.6962C28.2015 46.9003 28.126 46.9525 28.126 46.831H29.126H30.126C30.126 46.0634 29.6512 45.4957 29.177 45.1233C28.6893 44.7402 28.041 44.4298 27.3207 44.1759L26.9883 45.119ZM29.126 46.831L28.126 46.8305C28.126 46.6906 28.2174 46.7951 27.7878 47.0753C27.4003 47.3281 26.7735 47.5939 25.9095 47.8323C24.1958 48.3052 21.7716 48.6103 19.0537 48.6103L19.0537 49.6103L19.0537 50.6103C21.8984 50.6103 24.5099 50.2932 26.4415 49.7603C27.4002 49.4957 28.2485 49.1627 28.8805 48.7504C29.4703 48.3656 30.1256 47.7389 30.126 46.8314L29.126 46.831ZM19.0537 49.6103V48.6103C16.3358 48.6103 13.9113 48.3052 12.1973 47.8323C11.3333 47.5939 10.7064 47.3281 10.3188 47.0753C9.88903 46.795 9.9804 46.6905 9.98047 46.8305L8.98047 46.831L7.98047 46.8314C7.98089 47.739 8.63628 48.3657 9.22617 48.7505C9.85822 49.1627 10.7066 49.4957 11.6654 49.7603C13.5972 50.2933 16.209 50.6103 19.0537 50.6103V49.6103ZM8.98047 46.831H9.98047C9.98047 46.9405 9.91623 46.9103 10.1038 46.746C10.2875 46.585 10.6138 46.3885 11.1162 46.1865L10.7432 45.2587L10.3702 44.3309C9.76058 44.5759 9.20557 44.8739 8.7859 45.2416C8.37009 45.6058 7.98047 46.1382 7.98047 46.831H8.98047ZM10.7432 45.2587L11.6587 45.661C13.0712 42.447 13.9463 37.5323 13.9463 32.0927H12.9463H11.9463C11.9463 37.3667 11.0912 41.9812 9.82767 44.8564L10.7432 45.2587ZM12.9463 32.0927L13.9463 32.0927C13.9462 27.461 13.3132 23.2237 12.2625 20.092L11.3145 20.4101L10.3664 20.7281C11.332 23.6064 11.9462 27.6195 11.9463 32.0927L12.9463 32.0927ZM11.3145 20.4101V21.4101H26.4756V20.4101V19.4101H11.3145V20.4101Z" fill="black" mask="url(#path-5-inside-2_51_353)"/>
<mask id="path-7-inside-3_51_353" fill="white">
<path d="M25.663 17.2397C28.0506 17.822 29.5718 18.7005 29.5721 19.684C29.5721 21.4375 24.7389 22.8588 18.7772 22.8588C12.8155 22.8588 7.9823 21.4375 7.9823 19.684C7.98271 18.6484 9.66928 17.7283 12.2782 17.1489L9.25281 10.1596H28.9374L25.663 17.2397Z"/>
</mask>
<path d="M25.663 17.2397C28.0506 17.822 29.5718 18.7005 29.5721 19.684C29.5721 21.4375 24.7389 22.8588 18.7772 22.8588C12.8155 22.8588 7.9823 21.4375 7.9823 19.684C7.98271 18.6484 9.66928 17.7283 12.2782 17.1489L9.25281 10.1596H28.9374L25.663 17.2397Z" fill="#5E5E5E"/>
<path d="M25.663 17.2397L24.7553 16.8199L24.2451 17.9232L25.426 18.2112L25.663 17.2397ZM29.5721 19.684L30.5721 19.684L30.5721 19.6836L29.5721 19.684ZM18.7772 22.8588L18.7772 23.8588H18.7772V22.8588ZM7.9823 19.684L6.9823 19.6836V19.684H7.9823ZM12.2782 17.1489L12.495 18.1251L13.6768 17.8626L13.1959 16.7516L12.2782 17.1489ZM9.25281 10.1596V9.15961H7.73028L8.33509 10.5569L9.25281 10.1596ZM28.9374 10.1596L29.845 10.5794L30.5016 9.15961H28.9374V10.1596ZM25.663 17.2397L25.426 18.2112C26.5703 18.4903 27.4361 18.8249 27.9908 19.1644C28.5993 19.5367 28.5722 19.7422 28.5721 19.6844L29.5721 19.684L30.5721 19.6836C30.5717 18.6423 29.7838 17.9168 29.0347 17.4584C28.2319 16.9671 27.1433 16.5714 25.8999 16.2682L25.663 17.2397ZM29.5721 19.684H28.5721C28.5721 19.6284 28.6048 19.7846 28.1529 20.0988C27.7305 20.3925 27.0541 20.6973 26.1282 20.9696C24.2895 21.5103 21.6903 21.8588 18.7772 21.8588V22.8588V23.8588C21.8259 23.8588 24.6241 23.4966 26.6925 22.8883C27.7201 22.5861 28.6246 22.2068 29.2947 21.7409C29.9354 21.2954 30.5721 20.6164 30.5721 19.684H29.5721ZM18.7772 22.8588L18.7772 21.8588C15.8642 21.8588 13.265 21.5103 11.4263 20.9696C10.5004 20.6973 9.82392 20.3925 9.40152 20.0988C8.94969 19.7846 8.9823 19.6284 8.9823 19.684H7.9823H6.9823C6.9823 20.6164 7.61907 21.2954 8.25977 21.7408C8.92991 22.2068 9.83436 22.5861 10.862 22.8883C12.9304 23.4966 15.7286 23.8588 18.7772 23.8588L18.7772 22.8588ZM7.9823 19.684L8.9823 19.6844C8.98228 19.7419 8.96077 19.5107 9.6522 19.1113C10.2762 18.7509 11.2401 18.4038 12.495 18.1251L12.2782 17.1489L12.0614 16.1727C10.7074 16.4734 9.52349 16.8761 8.65192 17.3794C7.84774 17.8439 6.98274 18.5906 6.9823 19.6836L7.9823 19.684ZM12.2782 17.1489L13.1959 16.7516L10.1705 9.76236L9.25281 10.1596L8.33509 10.5569L11.3605 17.5461L12.2782 17.1489ZM9.25281 10.1596V11.1596H28.9374V10.1596V9.15961H9.25281V10.1596ZM28.9374 10.1596L28.0297 9.73984L24.7553 16.8199L25.663 17.2397L26.5706 17.6594L29.845 10.5794L28.9374 10.1596Z" fill="black" mask="url(#path-7-inside-3_51_353)"/>
<mask id="path-9-inside-4_51_353" fill="white">
<path d="M18.2955 4.82217C18.7371 4.49064 19.4526 4.4906 19.8942 4.82217L25.3395 8.91104C25.4125 8.9659 25.4726 9.02665 25.5211 9.08975C27.8039 9.43919 29.2545 9.96176 29.2545 10.5468C29.2543 11.5988 24.5632 12.4521 18.777 12.4521C12.9909 12.452 8.30066 11.5988 8.30042 10.5468C8.30042 9.89803 10.0839 9.32534 12.8082 8.98135C12.8561 8.91993 12.9158 8.86197 12.9869 8.8085L18.2955 4.82217Z"/>
</mask>
<path d="M18.2955 4.82217C18.7371 4.49064 19.4526 4.4906 19.8942 4.82217L25.3395 8.91104C25.4125 8.9659 25.4726 9.02665 25.5211 9.08975C27.8039 9.43919 29.2545 9.96176 29.2545 10.5468C29.2543 11.5988 24.5632 12.4521 18.777 12.4521C12.9909 12.452 8.30066 11.5988 8.30042 10.5468C8.30042 9.89803 10.0839 9.32534 12.8082 8.98135C12.8561 8.91993 12.9158 8.86197 12.9869 8.8085L18.2955 4.82217Z" fill="#5E5E5E"/>
<path d="M18.2955 4.82217L17.6951 4.02246L17.6951 4.02253L18.2955 4.82217ZM19.8942 4.82217L20.4946 4.02252L20.4946 4.02251L19.8942 4.82217ZM25.3395 8.91104L25.94 8.11142L25.9399 8.11139L25.3395 8.91104ZM25.5211 9.08975L24.7281 9.69901L24.9728 10.0175L25.3698 10.0782L25.5211 9.08975ZM29.2545 10.5468L30.2545 10.547L30.2545 10.5468L29.2545 10.5468ZM18.777 12.4521L18.777 13.4521L18.777 13.4521L18.777 12.4521ZM8.30042 10.5468L7.30042 10.5468L7.30042 10.547L8.30042 10.5468ZM12.8082 8.98135L12.9335 9.97348L13.3432 9.92174L13.597 9.59599L12.8082 8.98135ZM12.9869 8.8085L12.3865 8.00886L12.3863 8.00896L12.9869 8.8085ZM18.2955 4.82217L18.8959 5.62188C18.9151 5.60747 18.9836 5.57351 19.0949 5.57351C19.2061 5.57351 19.2746 5.60747 19.2937 5.62184L19.8942 4.82217L20.4946 4.02251C20.0722 3.70531 19.5621 3.5735 19.0948 3.57351C18.6275 3.57352 18.1176 3.70534 17.6951 4.02246L18.2955 4.82217ZM19.8942 4.82217L19.2937 5.62183L24.739 9.7107L25.3395 8.91104L25.9399 8.11139L20.4946 4.02252L19.8942 4.82217ZM25.3395 8.91104L24.739 9.71066C24.739 9.71069 24.7378 9.7098 24.7358 9.70777C24.7337 9.70576 24.7311 9.70287 24.7281 9.69901L25.5211 9.08975L26.3141 8.48049C26.211 8.3463 26.0863 8.22132 25.94 8.11142L25.3395 8.91104ZM25.5211 9.08975L25.3698 10.0782C26.4826 10.2486 27.3357 10.4536 27.8871 10.6641C28.1681 10.7714 28.3127 10.8587 28.3692 10.9037C28.4403 10.9603 28.2545 10.8458 28.2545 10.5468L29.2545 10.5468L30.2545 10.5468C30.2545 9.95525 29.8874 9.55604 29.6152 9.33923C29.3283 9.11076 28.9677 8.93589 28.6006 8.79572C27.856 8.51137 26.8424 8.28036 25.6724 8.10127L25.5211 9.08975ZM29.2545 10.5468L28.2545 10.5466C28.2546 10.2774 28.4079 10.156 28.3774 10.1831C28.3511 10.2065 28.2543 10.2758 28.0361 10.3696C27.6072 10.5539 26.9252 10.743 26.0066 10.9101C24.1856 11.2412 21.629 11.4521 18.777 11.4521L18.777 12.4521L18.777 13.4521C21.7112 13.4521 24.3932 13.2363 26.3644 12.8778C27.3418 12.7 28.1943 12.4785 28.8259 12.207C29.1379 12.0729 29.4529 11.9029 29.7057 11.6783C29.9544 11.4574 30.2544 11.0791 30.2545 10.547L29.2545 10.5468ZM18.777 12.4521L18.777 11.4521C15.925 11.452 13.3687 11.2412 11.548 10.9101C10.6294 10.743 9.94751 10.5539 9.51879 10.3696C9.30057 10.2758 9.20387 10.2065 9.17753 10.1831C9.14708 10.1561 9.30035 10.2775 9.30042 10.5466L8.30042 10.5468L7.30042 10.547C7.30054 11.0791 7.60043 11.4573 7.84913 11.6782C8.10194 11.9029 8.41691 12.0729 8.72884 12.207C9.36042 12.4785 10.2128 12.7 11.1901 12.8778C13.161 13.2362 15.8428 13.452 18.777 13.4521L18.777 12.4521ZM8.30042 10.5468L9.30042 10.5468C9.30042 10.8759 9.07957 10.979 9.20407 10.8898C9.29842 10.8222 9.50092 10.7168 9.85447 10.5966C10.5488 10.3606 11.6001 10.1418 12.9335 9.97348L12.8082 8.98135L12.683 7.98923C11.292 8.16485 10.0894 8.40441 9.21091 8.70297C8.77805 8.85008 8.36441 9.03099 8.03923 9.26398C7.74419 9.47537 7.30042 9.89329 7.30042 10.5468L8.30042 10.5468ZM12.8082 8.98135L13.597 9.59599C13.5847 9.61178 13.5789 9.61452 13.5875 9.60805L12.9869 8.8085L12.3863 8.00896C12.2526 8.10941 12.1274 8.22808 12.0194 8.36672L12.8082 8.98135ZM12.9869 8.8085L13.5874 9.60815L18.896 5.62182L18.2955 4.82217L17.6951 4.02253L12.3865 8.00886L12.9869 8.8085Z" fill="black" mask="url(#path-9-inside-4_51_353)"/>
<circle cx="19.5937" cy="3.26561" r="2.76561" fill="#5E5E5E" stroke="black"/>
</svg>
