<svg width="39" height="76" viewBox="0 0 39 76" fill="none" xmlns="http://www.w3.org/2000/svg">
<path d="M19.1855 62.0082C24.4419 62.0082 29.1797 62.7669 32.585 63.9789C34.2898 64.5857 35.6336 65.2975 36.542 66.062C37.4528 66.8284 37.8721 67.5994 37.8721 68.3373C37.872 69.0752 37.4528 69.8463 36.542 70.6127C35.6336 71.3771 34.2896 72.088 32.585 72.6948C29.1797 73.9068 24.442 74.6664 19.1855 74.6664C13.9293 74.6664 9.1923 73.9068 5.78711 72.6948C4.08245 72.088 2.73847 71.3771 1.83008 70.6127C0.919302 69.8463 0.500076 69.0752 0.5 68.3373C0.5 67.5994 0.91922 66.8285 1.83008 66.062C2.73848 65.2975 4.08231 64.5857 5.78711 63.9789C9.19228 62.767 13.9294 62.0083 19.1855 62.0082Z" fill="#E3E3E3" stroke="black"/>
<mask id="path-2-inside-1_51_254" fill="white">
<path d="M30.8184 49.8574C29.3898 51.2759 28.5284 53.1047 28.5283 55.1015C28.5283 56.7133 29.0889 58.2162 30.0566 59.4814C33.7564 60.5979 36.1025 62.2558 36.1025 64.1093C36.1022 67.4712 28.3855 70.1962 18.8672 70.1962C9.34909 70.1961 1.63317 67.4712 1.63281 64.1093C1.63281 62.3166 3.82695 60.7048 7.31836 59.5908C8.33908 58.3029 8.93457 56.7608 8.93457 55.1015C8.9345 53.1048 8.07398 51.2759 6.64551 49.8574H30.8184Z"/>
</mask>
<path d="M30.8184 49.8574C29.3898 51.2759 28.5284 53.1047 28.5283 55.1015C28.5283 56.7133 29.0889 58.2162 30.0566 59.4814C33.7564 60.5979 36.1025 62.2558 36.1025 64.1093C36.1022 67.4712 28.3855 70.1962 18.8672 70.1962C9.34909 70.1961 1.63317 67.4712 1.63281 64.1093C1.63281 62.3166 3.82695 60.7048 7.31836 59.5908C8.33908 58.3029 8.93457 56.7608 8.93457 55.1015C8.9345 53.1048 8.07398 51.2759 6.64551 49.8574H30.8184Z" fill="#E3E3E3"/>
<path d="M30.8184 49.8574L31.523 50.5669L33.2446 48.8574H30.8184V49.8574ZM28.5283 55.1015L27.5283 55.1015V55.1015H28.5283ZM30.0566 59.4814L29.2624 60.089L29.4586 60.3454L29.7677 60.4387L30.0566 59.4814ZM36.1025 64.1093L37.1025 64.1094V64.1093H36.1025ZM18.8672 70.1962L18.8672 71.1962H18.8672V70.1962ZM1.63281 64.1093L0.632812 64.1093L0.632813 64.1094L1.63281 64.1093ZM7.31836 59.5908L7.62234 60.5434L7.91273 60.4508L8.10206 60.2119L7.31836 59.5908ZM8.93457 55.1015L9.93457 55.1015L9.93457 55.1015L8.93457 55.1015ZM6.64551 49.8574V48.8574H4.21935L5.94087 50.5669L6.64551 49.8574ZM30.8184 49.8574L30.1137 49.1478C28.5222 50.7282 27.5284 52.8037 27.5283 55.1015L28.5283 55.1015L29.5283 55.1015C29.5284 53.4058 30.2574 51.8237 31.523 50.5669L30.8184 49.8574ZM28.5283 55.1015H27.5283C27.5283 56.9532 28.174 58.6661 29.2624 60.089L30.0566 59.4814L30.8509 58.8738C30.0037 57.7663 29.5283 56.4735 29.5283 55.1015H28.5283ZM30.0566 59.4814L29.7677 60.4387C31.5569 60.9787 32.9469 61.6298 33.8675 62.3193C34.8038 63.0207 35.1025 63.6384 35.1025 64.1093H36.1025H37.1025C37.1025 62.7267 36.2282 61.5887 35.0665 60.7186C33.889 59.8366 32.2562 59.1006 30.3456 58.524L30.0566 59.4814ZM36.1025 64.1093L35.1025 64.1092C35.1025 64.5366 34.8598 65.0826 34.107 65.7111C33.3598 66.335 32.2188 66.9416 30.7211 67.4706C27.7347 68.5252 23.5438 69.1962 18.8672 69.1962V70.1962V71.1962C23.7089 71.1962 28.1355 70.5047 31.3871 69.3564C33.0084 68.7838 34.3916 68.0789 35.3888 67.2463C36.3804 66.4184 37.1024 65.363 37.1025 64.1094L36.1025 64.1093ZM18.8672 70.1962L18.8672 69.1962C14.1907 69.1962 10 68.5252 7.01387 67.4705C5.51629 66.9416 4.37543 66.3349 3.62829 65.7111C2.87558 65.0826 2.63286 64.5366 2.63281 64.1092L1.63281 64.1093L0.632813 64.1094C0.632947 65.363 1.35485 66.4183 2.34642 67.2463C3.34355 68.0789 4.72662 68.7838 6.34783 69.3564C9.59925 70.5047 14.0256 71.1962 18.8672 71.1962L18.8672 70.1962ZM1.63281 64.1093H2.63281C2.63281 63.6536 2.91101 63.0611 3.78035 62.3848C4.63788 61.7176 5.93782 61.0809 7.62234 60.5434L7.31836 59.5908L7.01438 58.6381C5.20749 59.2146 3.66465 59.9408 2.55226 60.8062C1.45168 61.6625 0.632812 62.7722 0.632812 64.1093H1.63281ZM7.31836 59.5908L8.10206 60.2119C9.24816 58.7658 9.93457 57.0089 9.93457 55.1015H8.93457H7.93457C7.93457 56.5127 7.43001 57.8399 6.53466 58.9696L7.31836 59.5908ZM8.93457 55.1015L9.93457 55.1015C9.93449 52.804 8.94184 50.7284 7.35015 49.1478L6.64551 49.8574L5.94087 50.5669C7.20612 51.8234 7.93451 53.4055 7.93457 55.1015L8.93457 55.1015ZM6.64551 49.8574V50.8574H30.8184V49.8574V48.8574H6.64551V49.8574Z" fill="black" mask="url(#path-2-inside-1_51_254)"/>
<path d="M18.8809 43.7979C22.6892 43.7979 26.1134 44.4806 28.5664 45.5645C29.7934 46.1066 30.755 46.7398 31.4033 47.417C32.0492 48.0918 32.3633 48.7872 32.3633 49.4766C32.3632 50.1658 32.0491 50.8605 31.4033 51.5352C30.755 52.2124 29.7935 52.8455 28.5664 53.3877C26.1134 54.4716 22.6892 55.1543 18.8809 55.1543C15.0728 55.1543 11.6492 54.4715 9.19629 53.3877C7.96912 52.8455 7.00673 52.2125 6.3584 51.5352C5.71267 50.8605 5.39854 50.1658 5.39844 49.4766C5.39844 48.7872 5.71247 48.0918 6.3584 47.417C7.00673 46.7397 7.96913 46.1067 9.19629 45.5645C11.6492 44.4807 15.0728 43.7979 18.8809 43.7979Z" fill="#E3E3E3" stroke="black"/>
<mask id="path-5-inside-2_51_254" fill="white">
<path d="M26.4756 20.4101C25.4675 23.415 24.8448 27.5404 24.8447 32.0927C24.8447 37.3684 25.6847 42.0695 26.9883 45.119C28.3276 45.5911 29.126 46.1849 29.126 46.831C29.1253 48.3661 24.6163 49.6102 19.0537 49.6103C13.4911 49.6103 8.98119 48.3661 8.98047 46.831C8.98047 46.2478 9.63125 45.7057 10.7432 45.2587C12.0812 42.2141 12.9463 37.4495 12.9463 32.0927C12.9462 27.5402 12.3226 23.4151 11.3145 20.4101H26.4756Z"/>
</mask>
<path d="M26.4756 20.4101C25.4675 23.415 24.8448 27.5404 24.8447 32.0927C24.8447 37.3684 25.6847 42.0695 26.9883 45.119C28.3276 45.5911 29.126 46.1849 29.126 46.831C29.1253 48.3661 24.6163 49.6102 19.0537 49.6103C13.4911 49.6103 8.98119 48.3661 8.98047 46.831C8.98047 46.2478 9.63125 45.7057 10.7432 45.2587C12.0812 42.2141 12.9463 37.4495 12.9463 32.0927C12.9462 27.5402 12.3226 23.4151 11.3145 20.4101H26.4756Z" fill="#E3E3E3"/>
<path d="M26.4756 20.4101L27.4237 20.7281L27.8658 19.4101H26.4756V20.4101ZM24.8447 32.0927L23.8447 32.0927V32.0927H24.8447ZM26.9883 45.119L26.0688 45.5121L26.2415 45.9161L26.6559 46.0622L26.9883 45.119ZM29.126 46.831L30.126 46.8314V46.831H29.126ZM19.0537 49.6103L19.0537 50.6103L19.0537 50.6103L19.0537 49.6103ZM8.98047 46.831L7.98047 46.831L7.98047 46.8314L8.98047 46.831ZM10.7432 45.2587L11.1162 46.1865L11.4946 46.0344L11.6587 45.661L10.7432 45.2587ZM12.9463 32.0927L13.9463 32.0927L13.9463 32.0927L12.9463 32.0927ZM11.3145 20.4101V19.4101H9.92419L10.3664 20.7281L11.3145 20.4101ZM26.4756 20.4101L25.5275 20.092C24.4769 23.2238 23.8448 27.4613 23.8447 32.0927L24.8447 32.0927L25.8447 32.0927C25.8448 27.6195 26.4581 23.6063 27.4237 20.7281L26.4756 20.4101ZM24.8447 32.0927H23.8447C23.8447 37.4514 24.6949 42.298 26.0688 45.5121L26.9883 45.119L27.9078 44.726C26.6746 41.841 25.8447 37.2854 25.8447 32.0927H24.8447ZM26.9883 45.119L26.6559 46.0622C27.2749 46.2804 27.6955 46.5028 27.9417 46.6962C28.2015 46.9003 28.126 46.9525 28.126 46.831H29.126H30.126C30.126 46.0634 29.6512 45.4957 29.177 45.1233C28.6893 44.7402 28.041 44.4298 27.3207 44.1759L26.9883 45.119ZM29.126 46.831L28.126 46.8305C28.126 46.6906 28.2174 46.7951 27.7878 47.0753C27.4003 47.3281 26.7735 47.5939 25.9095 47.8323C24.1958 48.3052 21.7716 48.6103 19.0537 48.6103L19.0537 49.6103L19.0537 50.6103C21.8984 50.6103 24.5099 50.2932 26.4415 49.7603C27.4002 49.4957 28.2485 49.1627 28.8805 48.7504C29.4703 48.3656 30.1256 47.7389 30.126 46.8314L29.126 46.831ZM19.0537 49.6103V48.6103C16.3358 48.6103 13.9113 48.3052 12.1973 47.8323C11.3333 47.5939 10.7064 47.3281 10.3188 47.0753C9.88903 46.795 9.9804 46.6905 9.98047 46.8305L8.98047 46.831L7.98047 46.8314C7.98089 47.739 8.63628 48.3657 9.22617 48.7505C9.85822 49.1627 10.7066 49.4957 11.6654 49.7603C13.5972 50.2933 16.209 50.6103 19.0537 50.6103V49.6103ZM8.98047 46.831H9.98047C9.98047 46.9405 9.91623 46.9103 10.1038 46.746C10.2875 46.585 10.6138 46.3885 11.1162 46.1865L10.7432 45.2587L10.3702 44.3309C9.76058 44.5759 9.20557 44.8739 8.7859 45.2416C8.37009 45.6058 7.98047 46.1382 7.98047 46.831H8.98047ZM10.7432 45.2587L11.6587 45.661C13.0712 42.447 13.9463 37.5323 13.9463 32.0927H12.9463H11.9463C11.9463 37.3667 11.0912 41.9812 9.82767 44.8564L10.7432 45.2587ZM12.9463 32.0927L13.9463 32.0927C13.9462 27.461 13.3132 23.2237 12.2625 20.092L11.3145 20.4101L10.3664 20.7281C11.332 23.6064 11.9462 27.6195 11.9463 32.0927L12.9463 32.0927ZM11.3145 20.4101V21.4101H26.4756V20.4101V19.4101H11.3145V20.4101Z" fill="black" mask="url(#path-5-inside-2_51_254)"/>
<mask id="path-7-inside-3_51_254" fill="white">
<path d="M25.663 17.2397C28.0506 17.822 29.5718 18.7005 29.5721 19.684C29.5721 21.4375 24.7389 22.8588 18.7772 22.8588C12.8155 22.8588 7.9823 21.4374 7.9823 19.684C7.98271 18.6484 9.66928 17.7283 12.2782 17.1488L9.25281 10.1596H28.9374L25.663 17.2397Z"/>
</mask>
<path d="M25.663 17.2397C28.0506 17.822 29.5718 18.7005 29.5721 19.684C29.5721 21.4375 24.7389 22.8588 18.7772 22.8588C12.8155 22.8588 7.9823 21.4374 7.9823 19.684C7.98271 18.6484 9.66928 17.7283 12.2782 17.1488L9.25281 10.1596H28.9374L25.663 17.2397Z" fill="#E3E3E3"/>
<path d="M25.663 17.2397L24.7553 16.8199L24.2451 17.9232L25.426 18.2112L25.663 17.2397ZM29.5721 19.684L30.5721 19.684L30.5721 19.6836L29.5721 19.684ZM18.7772 22.8588L18.7772 23.8588H18.7772V22.8588ZM7.9823 19.684L6.9823 19.6836V19.684H7.9823ZM12.2782 17.1488L12.495 18.1251L13.6768 17.8626L13.1959 16.7516L12.2782 17.1488ZM9.25281 10.1596V9.15959H7.73028L8.33509 10.5568L9.25281 10.1596ZM28.9374 10.1596L29.845 10.5794L30.5016 9.15959H28.9374V10.1596ZM25.663 17.2397L25.426 18.2112C26.5703 18.4902 27.4361 18.8249 27.9908 19.1644C28.5993 19.5367 28.5722 19.7422 28.5721 19.6844L29.5721 19.684L30.5721 19.6836C30.5717 18.6423 29.7838 17.9168 29.0347 17.4584C28.2319 16.9671 27.1433 16.5714 25.8999 16.2681L25.663 17.2397ZM29.5721 19.684H28.5721C28.5721 19.6284 28.6048 19.7846 28.1529 20.0988C27.7305 20.3925 27.0541 20.6973 26.1282 20.9696C24.2895 21.5103 21.6903 21.8588 18.7772 21.8588V22.8588V23.8588C21.8259 23.8588 24.6241 23.4966 26.6925 22.8883C27.7201 22.5861 28.6246 22.2068 29.2947 21.7408C29.9354 21.2953 30.5721 20.6164 30.5721 19.684H29.5721ZM18.7772 22.8588L18.7772 21.8588C15.8642 21.8588 13.265 21.5103 11.4263 20.9696C10.5004 20.6973 9.82392 20.3925 9.40152 20.0988C8.94969 19.7846 8.9823 19.6284 8.9823 19.684H7.9823H6.9823C6.9823 20.6164 7.61907 21.2953 8.25977 21.7408C8.92991 22.2068 9.83436 22.5861 10.862 22.8883C12.9304 23.4966 15.7286 23.8588 18.7772 23.8588L18.7772 22.8588ZM7.9823 19.684L8.9823 19.6844C8.98228 19.7419 8.96077 19.5107 9.6522 19.1113C10.2762 18.7509 11.2401 18.4038 12.495 18.1251L12.2782 17.1488L12.0614 16.1726C10.7074 16.4734 9.52349 16.876 8.65192 17.3794C7.84774 17.8439 6.98274 18.5905 6.9823 19.6836L7.9823 19.684ZM12.2782 17.1488L13.1959 16.7516L10.1705 9.76235L9.25281 10.1596L8.33509 10.5568L11.3605 17.5461L12.2782 17.1488ZM9.25281 10.1596V11.1596H28.9374V10.1596V9.15959H9.25281V10.1596ZM28.9374 10.1596L28.0297 9.73983L24.7553 16.8199L25.663 17.2397L26.5706 17.6594L29.845 10.5794L28.9374 10.1596Z" fill="black" mask="url(#path-7-inside-3_51_254)"/>
<mask id="path-9-inside-4_51_254" fill="white">
<path d="M18.2955 4.82162C18.7371 4.49036 19.4527 4.49032 19.8942 4.82162L25.3395 8.91147C25.4124 8.96623 25.4727 9.02623 25.5211 9.0892C27.8033 9.43855 29.2537 9.96139 29.2545 10.5462C29.2545 11.5983 24.5634 12.4515 18.777 12.4515C12.9908 12.4515 8.30041 11.5983 8.30042 10.5462C8.30129 9.89768 10.0846 9.32569 12.8082 8.98178C12.8561 8.92023 12.9156 8.86152 12.9869 8.80795L18.2955 4.82162Z"/>
</mask>
<path d="M18.2955 4.82162C18.7371 4.49036 19.4527 4.49032 19.8942 4.82162L25.3395 8.91147C25.4124 8.96623 25.4727 9.02623 25.5211 9.0892C27.8033 9.43855 29.2537 9.96139 29.2545 10.5462C29.2545 11.5983 24.5634 12.4515 18.777 12.4515C12.9908 12.4515 8.30041 11.5983 8.30042 10.5462C8.30129 9.89768 10.0846 9.32569 12.8082 8.98178C12.8561 8.92023 12.9156 8.86152 12.9869 8.80795L18.2955 4.82162Z" fill="#E3E3E3"/>
<path d="M18.2955 4.82162L17.6954 4.02173L17.6951 4.02198L18.2955 4.82162ZM19.8942 4.82162L20.4947 4.02204L20.4944 4.02177L19.8942 4.82162ZM25.3395 8.91147L24.7389 9.71106L24.739 9.71109L25.3395 8.91147ZM25.5211 9.0892L24.7285 9.69889L24.9731 10.017L25.3698 10.0777L25.5211 9.0892ZM29.2545 10.5462L30.2545 10.5462L30.2545 10.5449L29.2545 10.5462ZM18.777 12.4515L18.777 13.4515L18.777 13.4515L18.777 12.4515ZM8.30042 10.5462L7.30042 10.5449L7.30042 10.5462L8.30042 10.5462ZM12.8082 8.98178L12.9335 9.9739L13.3434 9.92214L13.5973 9.5961L12.8082 8.98178ZM12.9869 8.80795L12.3865 8.00831L12.3864 8.00833L12.9869 8.80795ZM18.2955 4.82162L18.8957 5.62152C18.9148 5.60717 18.9834 5.57316 19.0949 5.57316C19.2063 5.57316 19.2749 5.60717 19.294 5.62148L19.8942 4.82162L20.4944 4.02177C20.0719 3.70478 19.5619 3.57315 19.0948 3.57316C18.6277 3.57317 18.1178 3.70481 17.6954 4.02173L18.2955 4.82162ZM19.8942 4.82162L19.2936 5.62121L24.7389 9.71106L25.3395 8.91147L25.94 8.11188L20.4947 4.02204L19.8942 4.82162ZM25.3395 8.91147L24.739 9.71109C24.7428 9.71394 24.7376 9.71076 24.7285 9.69889L25.5211 9.0892L26.3138 8.47951C26.2078 8.3417 26.082 8.21851 25.94 8.11185L25.3395 8.91147ZM25.5211 9.0892L25.3698 10.0777C26.4822 10.248 27.3352 10.453 27.8865 10.6636C28.1675 10.7709 28.3123 10.8582 28.369 10.9033C28.4404 10.9602 28.2549 10.8462 28.2545 10.5476L29.2545 10.5462L30.2545 10.5449C30.2537 9.95389 29.8867 9.55519 29.6146 9.33859C29.3277 9.11027 28.9672 8.93542 28.6001 8.79523C27.8555 8.51084 26.8422 8.27978 25.6724 8.10072L25.5211 9.0892ZM29.2545 10.5462L28.2545 10.5462C28.2545 10.2771 28.4079 10.1556 28.3774 10.1826C28.3511 10.206 28.2544 10.2752 28.0362 10.3691C27.6074 10.5534 26.9254 10.7425 26.0067 10.9095C24.1857 11.2407 21.6291 11.4515 18.777 11.4515L18.777 12.4515L18.777 13.4515C21.7113 13.4515 24.3934 13.2357 26.3646 12.8773C27.342 12.6995 28.1944 12.478 28.8261 12.2065C29.138 12.0724 29.453 11.9024 29.7059 11.6777C29.9546 11.4567 30.2545 11.0784 30.2545 10.5462L29.2545 10.5462ZM18.777 12.4515L18.777 11.4515C15.925 11.4515 13.3685 11.2407 11.5478 10.9095C10.6292 10.7425 9.94737 10.5534 9.51868 10.3691C9.30048 10.2753 9.20382 10.206 9.17752 10.1827C9.14712 10.1556 9.30042 10.2771 9.30042 10.5462L8.30042 10.5462L7.30042 10.5462C7.30041 11.0784 7.60028 11.4566 7.84899 11.6776C8.1018 11.9023 8.41678 12.0723 8.7287 12.2064C9.36027 12.478 10.2126 12.6995 11.1899 12.8772C13.1609 13.2357 15.8428 13.4515 18.777 13.4515L18.777 12.4515ZM8.30042 10.5462L9.30041 10.5476C9.29997 10.8764 9.07938 10.979 9.20412 10.8897C9.29864 10.8221 9.50128 10.7167 9.85484 10.5967C10.5492 10.3608 11.6003 10.1422 12.9335 9.9739L12.8082 8.98178L12.683 7.98966C11.2925 8.16523 10.0901 8.40458 9.21172 8.70288C8.77889 8.84986 8.36532 9.03061 8.04011 9.26336C7.74512 9.47448 7.3013 9.89184 7.30042 10.5449L8.30042 10.5462ZM12.8082 8.98178L13.5973 9.5961C13.5882 9.60783 13.5833 9.61067 13.5874 9.60757L12.9869 8.80795L12.3864 8.00833C12.2479 8.11237 12.1241 8.23263 12.0192 8.36746L12.8082 8.98178ZM12.9869 8.80795L13.5874 9.6076L18.896 5.62127L18.2955 4.82162L17.6951 4.02198L12.3865 8.00831L12.9869 8.80795Z" fill="black" mask="url(#path-9-inside-4_51_254)"/>
<circle cx="19.5937" cy="3.26561" r="2.76561" fill="#E3E3E3" stroke="black"/>
</svg>
