<svg width="39" height="59" viewBox="0 0 39 59" fill="none" xmlns="http://www.w3.org/2000/svg">
<path d="M19.1855 44.8638C24.4419 44.8638 29.1797 45.6224 32.585 46.8345C34.2898 47.4413 35.6336 48.153 36.542 48.9175C37.4528 49.684 37.8721 50.455 37.8721 51.1929C37.872 51.9307 37.4528 52.7018 36.542 53.4683C35.6336 54.2326 34.2896 54.9435 32.585 55.5503C29.1797 56.7623 24.442 57.522 19.1855 57.522C13.9293 57.5219 9.1923 56.7623 5.78711 55.5503C4.08245 54.9435 2.73847 54.2326 1.83008 53.4683C0.919302 52.7018 0.500076 51.9307 0.5 51.1929C0.5 50.455 0.91922 49.684 1.83008 48.9175C2.73848 48.1531 4.08231 47.4413 5.78711 46.8345C9.19228 45.6225 13.9294 44.8638 19.1855 44.8638Z" fill="#E3E3E3" stroke="black"/>
<mask id="path-2-inside-1_51_71" fill="white">
<path d="M30.8193 32.7129C29.3908 34.1315 28.5294 35.9603 28.5293 37.957C28.5293 39.5689 29.0898 41.0718 30.0576 42.3369C33.7574 43.4534 36.1035 45.1113 36.1035 46.9648C36.1031 50.3267 28.3865 53.0518 18.8682 53.0518C9.35009 53.0517 1.63419 50.3267 1.63379 46.9648C1.63379 45.1721 3.82793 43.5603 7.31934 42.4463C8.34007 41.1584 8.93555 39.6164 8.93555 37.957C8.93548 35.9603 8.07496 34.1315 6.64648 32.7129H30.8193Z"/>
</mask>
<path d="M30.8193 32.7129C29.3908 34.1315 28.5294 35.9603 28.5293 37.957C28.5293 39.5689 29.0898 41.0718 30.0576 42.3369C33.7574 43.4534 36.1035 45.1113 36.1035 46.9648C36.1031 50.3267 28.3865 53.0518 18.8682 53.0518C9.35009 53.0517 1.63419 50.3267 1.63379 46.9648C1.63379 45.1721 3.82793 43.5603 7.31934 42.4463C8.34007 41.1584 8.93555 39.6164 8.93555 37.957C8.93548 35.9603 8.07496 34.1315 6.64648 32.7129H30.8193Z" fill="#E3E3E3"/>
<path d="M30.8193 32.7129L31.524 33.4225L33.2455 31.7129H30.8193V32.7129ZM28.5293 37.957L27.5293 37.957V37.957H28.5293ZM30.0576 42.3369L29.2634 42.9445L29.4596 43.201L29.7687 43.2943L30.0576 42.3369ZM36.1035 46.9648L37.1035 46.965V46.9648H36.1035ZM18.8682 53.0518L18.8682 54.0518H18.8682V53.0518ZM1.63379 46.9648L0.633789 46.9648L0.633789 46.965L1.63379 46.9648ZM7.31934 42.4463L7.62331 43.399L7.91371 43.3063L8.10304 43.0674L7.31934 42.4463ZM8.93555 37.957L9.93555 37.957L9.93555 37.957L8.93555 37.957ZM6.64648 32.7129V31.7129H4.22033L5.94184 33.4225L6.64648 32.7129ZM30.8193 32.7129L30.1147 32.0033C28.5232 33.5837 27.5294 35.6592 27.5293 37.957L28.5293 37.957L29.5293 37.9571C29.5294 36.2613 30.2584 34.6792 31.524 33.4225L30.8193 32.7129ZM28.5293 37.957H27.5293C27.5293 39.8087 28.175 41.5217 29.2634 42.9445L30.0576 42.3369L30.8519 41.7293C30.0047 40.6218 29.5293 39.329 29.5293 37.957H28.5293ZM30.0576 42.3369L29.7687 43.2943C31.5578 43.8342 32.9479 44.4854 33.8685 45.1749C34.8048 45.8762 35.1035 46.4939 35.1035 46.9648H36.1035H37.1035C37.1035 45.5822 36.2291 44.4442 35.0675 43.5741C33.89 42.6922 32.2571 41.9562 30.3465 41.3796L30.0576 42.3369ZM36.1035 46.9648L35.1035 46.9647C35.1035 47.3921 34.8607 47.9381 34.1079 48.5666C33.3607 49.1905 32.2197 49.7972 30.722 50.3261C27.7357 51.3807 23.5447 52.0518 18.8682 52.0518V53.0518V54.0518C23.7099 54.0518 28.1364 53.3603 31.388 52.2119C33.0094 51.6394 34.3925 50.9344 35.3897 50.1018C36.3814 49.2739 37.1034 48.2186 37.1035 46.965L36.1035 46.9648ZM18.8682 53.0518L18.8682 52.0518C14.1917 52.0517 10.001 51.3807 7.01487 50.326C5.5173 49.7971 4.37643 49.1904 3.62929 48.5666C2.87657 47.9381 2.63384 47.3921 2.63379 46.9647L1.63379 46.9648L0.633789 46.965C0.63394 48.2185 1.35585 49.2738 2.34742 50.1018C3.34456 50.9344 4.72763 51.6393 6.34883 52.2119C9.60025 53.3602 14.0265 54.0517 18.8682 54.0518L18.8682 53.0518ZM1.63379 46.9648H2.63379C2.63379 46.5092 2.91199 45.9167 3.78133 45.2403C4.63886 44.5732 5.93879 43.9365 7.62331 43.399L7.31934 42.4463L7.01536 41.4936C5.20847 42.0701 3.66563 42.7963 2.55324 43.6618C1.45266 44.518 0.633789 45.6278 0.633789 46.9648H1.63379ZM7.31934 42.4463L8.10304 43.0674C9.24914 41.6214 9.93555 39.8645 9.93555 37.957H8.93555H7.93555C7.93555 39.3683 7.43099 40.6955 6.53563 41.8252L7.31934 42.4463ZM8.93555 37.957L9.93555 37.957C9.93547 35.6595 8.94282 33.584 7.35112 32.0033L6.64648 32.7129L5.94184 33.4225C7.20711 34.6789 7.93549 36.2611 7.93555 37.9571L8.93555 37.957ZM6.64648 32.7129V33.7129H30.8193V32.7129V31.7129H6.64648V32.7129Z" fill="black" mask="url(#path-2-inside-1_51_71)"/>
<path d="M19.1854 26.6534C22.9938 26.6534 26.418 27.3361 28.871 28.42C30.098 28.9622 31.0596 29.5953 31.7079 30.2725C32.3538 30.9473 32.6678 31.6427 32.6678 32.3321C32.6677 33.0213 32.3537 33.716 31.7079 34.3907C31.0596 35.0679 30.098 35.701 28.871 36.2432C26.418 37.3271 22.9938 38.0098 19.1854 38.0098C15.3773 38.0098 11.9538 37.327 9.50085 36.2432C8.27368 35.701 7.3113 35.068 6.66296 34.3907C6.01724 33.7161 5.70311 33.0213 5.703 32.3321C5.703 31.6427 6.01704 30.9473 6.66296 30.2725C7.3113 29.5952 8.27369 28.9622 9.50085 28.42C11.9538 27.3362 15.3774 26.6534 19.1854 26.6534Z" fill="#E3E3E3" stroke="black"/>
<mask id="path-5-inside-2_51_71" fill="white">
<path d="M27.2357 13.8788C25.8598 15.6189 24.9692 18.3888 24.9691 21.5087C24.9691 23.8879 25.489 26.0627 26.3451 27.7333C28.1416 28.2354 29.2504 28.9251 29.2504 29.6865C29.2497 31.2216 24.7407 32.4657 19.1781 32.4658C13.6155 32.4658 9.10554 31.2216 9.10486 29.6865C9.10486 28.9794 10.0618 28.3343 11.6371 27.8437C12.5273 26.159 13.0707 23.9407 13.0707 21.5087C13.0706 18.3887 12.18 15.6189 10.8041 13.8788H27.2357Z"/>
</mask>
<path d="M27.2357 13.8788C25.8598 15.6189 24.9692 18.3888 24.9691 21.5087C24.9691 23.8879 25.489 26.0627 26.3451 27.7333C28.1416 28.2354 29.2504 28.9251 29.2504 29.6865C29.2497 31.2216 24.7407 32.4657 19.1781 32.4658C13.6155 32.4658 9.10554 31.2216 9.10486 29.6865C9.10486 28.9794 10.0618 28.3343 11.6371 27.8437C12.5273 26.159 13.0707 23.9407 13.0707 21.5087C13.0706 18.3887 12.18 15.6189 10.8041 13.8788H27.2357Z" fill="#E3E3E3"/>
<path d="M27.2357 13.8788L28.0201 14.4991L29.3013 12.8788H27.2357V13.8788ZM24.9691 21.5087L23.9691 21.5087V21.5087H24.9691ZM26.3451 27.7333L25.4551 28.1894L25.6546 28.5787L26.0759 28.6964L26.3451 27.7333ZM29.2504 29.6865L30.2504 29.6869V29.6865H29.2504ZM19.1781 32.4658L19.1781 33.4658L19.1781 33.4658L19.1781 32.4658ZM9.10486 29.6865L8.10486 29.6865L8.10486 29.6869L9.10486 29.6865ZM11.6371 27.8437L11.9344 28.7985L12.3284 28.6758L12.5212 28.3109L11.6371 27.8437ZM13.0707 21.5087L14.0707 21.5087L14.0707 21.5087L13.0707 21.5087ZM10.8041 13.8788V12.8788H8.73847L10.0197 14.4991L10.8041 13.8788ZM27.2357 13.8788L26.4513 13.2586C24.903 15.2168 23.9692 18.223 23.9691 21.5087L24.9691 21.5087L25.9691 21.5088C25.9692 18.5545 26.8167 16.0211 28.0201 14.4991L27.2357 13.8788ZM24.9691 21.5087H23.9691C23.9691 24.0256 24.5177 26.3602 25.4551 28.1894L26.3451 27.7333L27.235 27.2773C26.4602 25.7653 25.9691 23.7502 25.9691 21.5087H24.9691ZM26.3451 27.7333L26.0759 28.6964C26.9267 28.9342 27.542 29.198 27.9215 29.4479C28.3413 29.7243 28.2504 29.8257 28.2504 29.6865H29.2504H30.2504C30.2504 28.7859 29.6051 28.1618 29.0213 27.7774C28.3973 27.3666 27.56 27.0345 26.6142 26.7702L26.3451 27.7333ZM29.2504 29.6865L28.2504 29.686C28.2504 29.5461 28.3418 29.6506 27.9122 29.9308C27.5247 30.1836 26.8979 30.4494 26.034 30.6878C24.3202 31.1607 21.896 31.4657 19.1781 31.4658L19.1781 32.4658L19.1781 33.4658C22.0228 33.4657 24.6343 33.1487 26.5659 32.6158C27.5247 32.3512 28.3729 32.0182 29.0049 31.6059C29.5947 31.2211 30.25 30.5944 30.2504 29.6869L29.2504 29.6865ZM19.1781 32.4658V31.4658C16.4602 31.4658 14.0357 31.1607 12.3217 30.6878C11.4576 30.4494 10.8307 30.1836 10.4431 29.9308C10.0134 29.6505 10.1048 29.546 10.1049 29.686L9.10486 29.6865L8.10486 29.6869C8.10526 30.5945 8.76064 31.2212 9.35054 31.606C9.98259 32.0182 10.831 32.3513 11.7898 32.6158C13.7216 33.1488 16.3334 33.4658 19.1781 33.4658V32.4658ZM9.10486 29.6865H10.1049C10.1049 29.8182 10.0201 29.741 10.3608 29.4981C10.675 29.2741 11.1955 29.0286 11.9344 28.7985L11.6371 27.8437L11.3397 26.8889C10.5034 27.1494 9.75778 27.4717 9.19966 27.8697C8.66808 28.2487 8.10486 28.8477 8.10486 29.6865H9.10486ZM11.6371 27.8437L12.5212 28.3109C13.4974 26.4635 14.0707 24.081 14.0707 21.5087H13.0707H12.0707C12.0707 23.8004 11.5572 25.8545 10.7529 27.3765L11.6371 27.8437ZM13.0707 21.5087L14.0707 21.5087C14.0706 18.2229 13.1369 15.2168 11.5885 13.2586L10.8041 13.8788L10.0197 14.4991C11.2231 16.021 12.0706 18.5544 12.0707 21.5088L13.0707 21.5087ZM10.8041 13.8788V14.8788H27.2357V13.8788V12.8788H10.8041V13.8788Z" fill="black" mask="url(#path-5-inside-2_51_71)"/>
<path d="M19.1853 10.9059C22.6452 10.9059 25.7563 11.4099 27.9841 12.2097C29.1002 12.6103 29.9683 13.0764 30.5476 13.5681C31.1288 14.0614 31.3679 14.5334 31.3679 14.9587C31.3678 15.384 31.1288 15.856 30.5476 16.3493C29.9683 16.841 29.1002 17.3061 27.9841 17.7067C25.7563 18.5065 22.6453 19.0104 19.1853 19.0104C15.7256 19.0104 12.6152 18.5064 10.3875 17.7067C9.27146 17.3061 8.4033 16.8409 7.82397 16.3493C7.24265 15.8559 7.00376 15.384 7.00366 14.9587C7.00366 14.5333 7.24262 14.0615 7.82397 13.5681C8.4033 13.0764 9.27138 12.6103 10.3875 12.2097C12.6152 11.41 15.7257 10.906 19.1853 10.9059Z" fill="#E3E3E3" stroke="black"/>
<mask id="path-8-inside-3_51_71" fill="white">
<path d="M13.0077 7.55469C13.4297 7.49659 13.8637 7.44366 14.3085 7.39746V1.95117H15.6093V0H24.0634V7.39746C24.5081 7.44367 24.9421 7.49658 25.3641 7.55469V0H33.1688V11.7061H32.9745C31.8651 13.5516 26.1139 14.958 19.1854 14.958C12.2574 14.958 6.50713 13.5515 5.39734 11.7061H5.203V0H13.0077V7.55469Z"/>
</mask>
<path d="M13.0077 7.55469C13.4297 7.49659 13.8637 7.44366 14.3085 7.39746V1.95117H15.6093V0H24.0634V7.39746C24.5081 7.44367 24.9421 7.49658 25.3641 7.55469V0H33.1688V11.7061H32.9745C31.8651 13.5516 26.1139 14.958 19.1854 14.958C12.2574 14.958 6.50713 13.5515 5.39734 11.7061H5.203V0H13.0077V7.55469Z" fill="#E3E3E3"/>
<path d="M13.0077 7.55469H12.0077V8.70179L13.1441 8.54534L13.0077 7.55469ZM14.3085 7.39746L14.4118 8.39211L15.3085 8.29897V7.39746H14.3085ZM14.3085 1.95117V0.951172H13.3085V1.95117H14.3085ZM15.6093 1.95117V2.95117H16.6093V1.95117H15.6093ZM15.6093 0V-1H14.6093V0H15.6093ZM24.0634 0H25.0634V-1H24.0634V0ZM24.0634 7.39746H23.0634V8.29896L23.96 8.39211L24.0634 7.39746ZM25.3641 7.55469L25.2277 8.54534L26.3641 8.70181V7.55469H25.3641ZM25.3641 0V-1H24.3641V0H25.3641ZM33.1688 0H34.1688V-1H33.1688V0ZM33.1688 11.7061V12.7061H34.1688V11.7061H33.1688ZM32.9745 11.7061V10.7061H32.4088L32.1174 11.1909L32.9745 11.7061ZM19.1854 14.958L19.1854 15.958H19.1854V14.958ZM5.39734 11.7061L6.25431 11.1907L5.96286 10.7061H5.39734V11.7061ZM5.203 11.7061H4.203V12.7061H5.203V11.7061ZM5.203 0V-1H4.203V0H5.203ZM13.0077 0H14.0077V-1H13.0077V0ZM13.0077 7.55469L13.1441 8.54534C13.5556 8.48868 13.9786 8.43711 14.4118 8.39211L14.3085 7.39746L14.2052 6.40281C13.7488 6.45021 13.3038 6.50449 12.8713 6.56403L13.0077 7.55469ZM14.3085 7.39746H15.3085V1.95117H14.3085H13.3085V7.39746H14.3085ZM14.3085 1.95117V2.95117H15.6093V1.95117V0.951172H14.3085V1.95117ZM15.6093 1.95117H16.6093V0H15.6093H14.6093V1.95117H15.6093ZM15.6093 0V1H24.0634V0V-1H15.6093V0ZM24.0634 0H23.0634V7.39746H24.0634H25.0634V0H24.0634ZM24.0634 7.39746L23.96 8.39211C24.3932 8.43711 24.8162 8.48868 25.2277 8.54534L25.3641 7.55469L25.5005 6.56403C25.068 6.50448 24.623 6.45022 24.1667 6.40281L24.0634 7.39746ZM25.3641 7.55469H26.3641V0H25.3641H24.3641V7.55469H25.3641ZM25.3641 0V1H33.1688V0V-1H25.3641V0ZM33.1688 0H32.1688V11.7061H33.1688H34.1688V0H33.1688ZM33.1688 11.7061V10.7061H32.9745V11.7061V12.7061H33.1688V11.7061ZM32.9745 11.7061L32.1174 11.1909C31.9898 11.4031 31.6331 11.731 30.8883 12.0938C30.1718 12.4428 29.2076 12.7707 28.0302 13.0514C25.679 13.6119 22.5891 13.958 19.1854 13.958V14.958V15.958C22.7102 15.958 25.9601 15.6009 28.494 14.9969C29.7592 14.6952 30.8738 14.3255 31.7642 13.8918C32.6263 13.4718 33.4044 12.9318 33.8316 12.2213L32.9745 11.7061ZM19.1854 14.958L19.1854 13.958C15.782 13.958 12.6924 13.6118 10.3415 13.0513C9.16424 12.7706 8.2001 12.4427 7.48361 12.0937C6.7389 11.7309 6.382 11.403 6.25431 11.1907L5.39734 11.7061L4.54037 12.2214C4.96757 12.9318 5.74563 13.4717 6.60772 13.8917C7.49803 14.3254 8.61255 14.6952 9.87761 14.9968C12.4113 15.6009 15.6609 15.958 19.1854 15.958L19.1854 14.958ZM5.39734 11.7061V10.7061H5.203V11.7061V12.7061H5.39734V11.7061ZM5.203 11.7061H6.203V0H5.203H4.203V11.7061H5.203ZM5.203 0V1H13.0077V0V-1H5.203V0ZM13.0077 0H12.0077V7.55469H13.0077H14.0077V0H13.0077Z" fill="black" mask="url(#path-8-inside-3_51_71)"/>
</svg>
